<?xml version="1.0" standalone="no"?>
<!DOCTYPE svg PUBLIC "-//W3C//DTD SVG 1.1//EN" "http://www.w3.org/Graphics/SVG/1.1/DTD/svg11.dtd" >
<svg xmlns="http://www.w3.org/2000/svg">
<metadata>Generated by IcoMoon</metadata>
<defs>
<font id="dora" horiz-adv-x="1024">
<font-face units-per-em="1024" ascent="870.4" descent="-153.6" />
<missing-glyph horiz-adv-x="1024" />
<glyph unicode="&#x20;" horiz-adv-x="256" d="" />
<glyph unicode="&#xe900;" glyph-name="evenly_distribute_h__indicator" d="M204.8 659.2h51.2v-614.4h-51.2v614.4zM768 659.2h51.2v-614.4h-51.2v614.4z" />
<glyph unicode="&#xe901;" glyph-name="evenly_distribute_h__object" d="M441.6 608h140.8c17.673 0 32-14.327 32-32v-448c0-17.673-14.327-32-32-32h-140.8c-17.673 0-32 14.327-32 32v448c0 17.673 14.327 32 32 32z" />
<glyph unicode="&#xe902;" glyph-name="evenly_distribute_v__indicator" d="M204.8 659.2h614.4v-51.2h-614.4v51.2zM204.8 96h614.4v-51.2h-614.4v51.2z" />
<glyph unicode="&#xe903;" glyph-name="evenly_distribute_v__object" d="M288 454.4h448c17.673 0 32-14.327 32-32v-140.8c0-17.673-14.327-32-32-32h-448c-17.673 0-32 14.327-32 32v140.8c0 17.673 14.327 32 32 32z" />
<glyph unicode="&#xe904;" glyph-name="inspect__bracket" d="M292.253 603.784c-23.961 24.603-62.825 24.603-86.777 0l-187.484-192.194c-23.989-24.554-23.989-64.396 0-88.951l187.484-192.237c11.976-12.258 27.701-18.416 43.389-18.416s31.404 6.159 43.389 18.416c23.951 24.573 23.951 64.406 0 88.975l-144.115 147.732 144.115 147.732c23.951 24.564 23.951 64.397 0 88.942zM998.834 411.144l-187.492 192.194c-23.961 24.603-62.816 24.603-86.767 0-23.961-24.545-23.961-64.378 0-88.941l144.105-147.732-144.105-147.733c-23.961-24.569-23.961-64.402 0-88.975 11.975-12.258 27.682-18.416 43.379-18.416 15.688 0 31.412 6.159 43.389 18.416l187.494 192.237c23.979 24.554 23.979 64.397-0.001 88.951z" />
<glyph unicode="&#xe905;" glyph-name="inspect__slash" d="M625.816 791.755v0c24.448-7.944 37.828-34.203 29.884-58.651l-244.517-752.545c-7.944-24.448-34.203-37.828-58.651-29.884v0c-24.448 7.944-37.828 34.203-29.884 58.651l244.517 752.545c7.944 24.448 34.203 37.828 58.651 29.884z" />
<glyph unicode="&#xe906;" glyph-name="play__arrow" d="M435.2 147.2c-13.614 0-25.338 5.634-33.846 16.275s-13.236 25.874-13.236 42.775v291.498c0 16.901 4.727 32.134 13.236 42.775s20.232 16.275 33.846 16.275c10.211 0 20.799-3.339 31.199-9.807l221.282-146.166c18.53-11.685 29.119-29.421 29.119-48.826 0-19.614-10.589-37.142-29.686-49.244l-219.769-145.123c-11.345-7.094-21.745-10.433-32.145-10.433z" />
<glyph unicode="&#xe907;" glyph-name="play__circle" d="M512-160c-282.77 0-512 229.23-512 512s229.23 512 512 512c282.77 0 512-229.23 512-512s-229.23-512-512-512zM512-57.6c226.216 0 409.6 183.384 409.6 409.6s-183.384 409.6-409.6 409.6c-226.216 0-409.6-183.384-409.6-409.6s183.384-409.6 409.6-409.6z" />
<glyph unicode="&#xe908;" glyph-name="widget_align_bottom__indicator" d="M204.8 96h614.4v-51.2h-614.4v51.2z" />
<glyph unicode="&#xe909;" glyph-name="widget_align_bottom__object" d="M339.2 659.2h89.6c17.673 0 32-14.327 32-32v-448c0-17.673-14.327-32-32-32h-89.6c-17.673 0-32 14.327-32 32v448c0 17.673 14.327 32 32 32v0zM595.2 454.4h89.6c17.673 0 32-14.327 32-32v-243.2c0-17.673-14.327-32-32-32h-89.6c-17.673 0-32 14.327-32 32v243.2c0 17.673 14.327 32 32 32z" />
<glyph unicode="&#xe90a;" glyph-name="widget_align_center__indicator" d="M512 659.2h51.2v-614.4h-51.2v614.4z" />
<glyph unicode="&#xe90b;" glyph-name="widget_align_center__object" d="M288 300.8h499.2c17.673 0 32-14.327 32-32v-89.6c0-17.673-14.327-32-32-32h-499.2c-17.673 0-32 14.327-32 32v89.6c0 17.673 14.327 32 32 32v0zM390.4 556.8h294.4c17.673 0 32-14.327 32-32v-89.6c0-17.673-14.327-32-32-32h-294.4c-17.673 0-32 14.327-32 32v89.6c0 17.673 14.327 32 32 32z" />
<glyph unicode="&#xe90c;" glyph-name="widget_align_left__indicator" d="M204.8 659.2h51.2v-614.4h-51.2v614.4z" />
<glyph unicode="&#xe90d;" glyph-name="widget_align_left__object" d="M339.2 300.8h448c17.673 0 32-14.327 32-32v-89.6c0-17.673-14.327-32-32-32h-448c-17.673 0-32 14.327-32 32v89.6c0 17.673 14.327 32 32 32v0zM339.2 556.8h243.2c17.673 0 32-14.327 32-32v-89.6c0-17.673-14.327-32-32-32h-243.2c-17.673 0-32 14.327-32 32v89.6c0 17.673 14.327 32 32 32v0z" />
<glyph unicode="&#xe90e;" glyph-name="widget_align_right__indicator" d="M768 659.2h51.2v-614.4h-51.2v614.4z" />
<glyph unicode="&#xe90f;" glyph-name="widget_align_right__object" d="M236.8 300.8h448c17.673 0 32-14.327 32-32v-89.6c0-17.673-14.327-32-32-32h-448c-17.673 0-32 14.327-32 32v89.6c0 17.673 14.327 32 32 32v0zM441.6 556.8h243.2c17.673 0 32-14.327 32-32v-89.6c0-17.673-14.327-32-32-32h-243.2c-17.673 0-32 14.327-32 32v89.6c0 17.673 14.327 32 32 32z" />
<glyph unicode="&#xe910;" glyph-name="widget_align_top__indicator" d="M204.8 659.2h614.4v-51.2h-614.4v51.2z" />
<glyph unicode="&#xe911;" glyph-name="widget_align_top__object" d="M339.2 556.8h89.6c17.673 0 32-14.327 32-32v-448c0-17.673-14.327-32-32-32h-89.6c-17.673 0-32 14.327-32 32v448c0 17.673 14.327 32 32 32v0zM595.2 556.8h89.6c17.673 0 32-14.327 32-32v-243.2c0-17.673-14.327-32-32-32h-89.6c-17.673 0-32 14.327-32 32v243.2c0 17.673 14.327 32 32 32z" />
<glyph unicode="&#xe912;" glyph-name="align_top" d="M204.8 556.8h614.4v51.2h-614.4v-51.2zM460.8 44.8h102.4v307.2h-102.4v-307.2zM512 505.6l-153.6-153.6h307.2l-153.6 153.6z" />
<glyph unicode="&#xe913;" glyph-name="widget_align_v_center__indicator" d="M204.8 403.2h614.4v-51.2h-614.4v51.2z" />
<glyph unicode="&#xe914;" glyph-name="widget_align_v_center__object" d="M339.2 659.2h89.6c17.673 0 32-14.327 32-32v-499.2c0-17.673-14.327-32-32-32h-89.6c-17.673 0-32 14.327-32 32v499.2c0 17.673 14.327 32 32 32v0zM595.2 556.8h89.6c17.673 0 32-14.327 32-32v-294.4c0-17.673-14.327-32-32-32h-89.6c-17.673 0-32 14.327-32 32v294.4c0 17.673 14.327 32 32 32z" />
<glyph unicode="&#xe915;" glyph-name="android" d="M851.2 198.4c-28.291 0-51.2 21.94-51.2 43.886v219.429c0 21.984 22.909 43.886 51.2 43.886s51.2-21.902 51.2-43.886v-219.429c0-21.946-22.909-43.886-51.2-43.886zM185.6 198.4c-28.301 0-51.2 21.94-51.2 43.886v219.429c0 21.984 22.899 43.886 51.2 43.886 28.259 0 51.2-21.902 51.2-43.886v-219.429c0-21.946-22.941-43.886-51.2-43.886zM697.6 454.4h-358.399v-342.216c0-8.836 7.163-16 16-16l326.399-0.004c8.837 0 16 7.163 16 16 0 0 0 0 0 0v342.22zM702.72 44.8h-368.64c-22.706 0-46.080 26.007-46.080 51.2v409.6h460.8v-409.6c0-25.193-23.334-51.2-46.080-51.2zM390.4-57.6v153.6h102.4v-153.6c0-28.277-22.923-51.2-51.2-51.2v0 0c-28.277 0-51.2 22.923-51.2 51.2zM544-57.6v153.6h102.4v-153.6c0-28.277-22.923-51.2-51.2-51.2v0 0c-28.277 0-51.2 22.923-51.2 51.2zM419.805 689.098c-37.225-17.132-58.559-41.32-69.945-73.203-3.929-11.003-6.499-21.533-8.128-33.494h353.335c-1.63 11.961-4.199 22.492-8.128 33.494-11.385 31.883-32.72 56.072-69.945 73.203l-10.077 4.638-3.631 1.437c-26.238 10.38-55.060 15.873-84.886 15.873-29.814 0-58.594-5.489-84.844-15.873l-3.935-1.557-9.816-4.517zM398.4 735.609l-41.25 63.341c-2.642 4.069-1.577 9.606 2.429 12.333 4.006 2.769 9.418 1.636 12.102-2.475l43.040-66.026c31.491 12.458 66.605 19.464 103.679 19.464s72.23-7.005 103.722-19.464l43.040 66.026c2.642 4.111 8.054 5.243 12.102 2.475 3.963-2.727 5.071-8.264 2.386-12.333l-41.25-63.341c10.937-5.034 25.48-13.977 43.628-26.829 66.772-54.364 66.772-134.28 66.772-177.579h-460.8c0 43.299 0 123.216 66.772 177.579 18.148 12.853 32.69 21.796 43.628 26.829zM569.621 608c14.146 0 25.579 11.485 25.579 25.62s-11.433 25.58-25.579 25.58c-14.146 0-25.621-11.445-25.621-25.58s11.475-25.62 25.621-25.62zM416.021 608c14.146 0 25.579 11.485 25.579 25.62s-11.433 25.58-25.579 25.58c-14.146 0-25.621-11.445-25.621-25.58s11.475-25.62 25.621-25.62z" />
<glyph unicode="&#xe916;" glyph-name="align_v_center" d="M204.8 352h614.4v-51.2h-614.4v51.2zM460.8 659.2h102.4v-102.4h-102.4v102.4zM512 403.2l-153.6 153.6h307.2l-153.6-153.6zM460.8-6.4h102.4v102.4h-102.4v-102.4zM512 249.6l-153.6-153.6h307.2l-153.6 153.6z" />
<glyph unicode="&#xe917;" glyph-name="align_bottom" d="M204.8 96h614.4v-51.2h-614.4v51.2zM460.8 608h102.4v-307.2h-102.4v307.2zM512 147.2l-153.6 153.6h307.2l-153.6-153.6z" />
<glyph unicode="&#xe918;" glyph-name="align_left" d="M204.8 608h614.4v-51.2h-614.4v51.2zM204.8 300.8h614.4v-51.2h-614.4v51.2zM204.8 454.4h409.6v-51.2h-409.6v51.2zM204.8 147.2h409.6v-51.2h-409.6v51.2z" />
<glyph unicode="&#xe919;" glyph-name="align_center" d="M204.8 608h614.4v-51.2h-614.4v51.2zM204.8 300.8h614.4v-51.2h-614.4v51.2zM307.2 454.4h409.6v-51.2h-409.6v51.2zM307.2 147.2h409.6v-51.2h-409.6v51.2z" />
<glyph unicode="&#xe91a;" glyph-name="align_right" d="M204.8 608h614.4v-51.2h-614.4v51.2zM204.8 300.8h614.4v-51.2h-614.4v51.2zM409.6 454.4h409.6v-51.2h-409.6v51.2zM409.6 147.2h409.6v-51.2h-409.6v51.2z" />
<glyph unicode="&#xe91b;" glyph-name="cog" d="M197.385 65.235c-25.54-12.998-58.016-4.4-72.496 19.139l-53.696 87.287c-14.498 23.568-6.309 54.125 18.601 68.429l37.834 21.725c14.383 8.259 26.036 27.787 26.027 43.619l-0.054 93.182c-0.009 15.831-11.653 35.346-26.061 43.619l-37.835 21.726c-24.772 14.225-33.070 44.884-18.574 68.414l53.753 87.255c14.514 23.559 46.834 32.198 72.507 19.132l38.994-19.845c14.824-7.544 38.704-7.25 53.338 0.658l86.134 46.547c14.633 7.908 26.852 27.103 27.294 42.933l1.159 41.57c0.759 27.217 24.941 49.295 53.933 49.311l107.508 0.063c29.028 0.017 53.17-21.89 53.934-49.27l1.16-41.586c0.441-15.81 12.659-35.044 27.291-42.961l86.124-46.6c14.632-7.917 38.49-8.229 53.345-0.67l39.008 19.852c25.54 12.998 58.016 4.4 72.496-19.139l53.696-87.287c14.498-23.568 6.309-54.125-18.601-68.429l-37.834-21.725c-14.383-8.259-26.036-27.787-26.027-43.619l0.054-93.182c0.009-15.831 11.653-35.346 26.061-43.619l37.835-21.726c24.772-14.225 33.070-44.884 18.574-68.414l-53.753-87.255c-14.514-23.559-46.834-32.198-72.507-19.132l-38.994 19.845c-14.824 7.544-38.704 7.25-53.338-0.658l-86.134-46.547c-14.633-7.908-26.852-27.103-27.294-42.933l-1.159-41.57c-0.759-27.217-24.941-49.295-53.933-49.311l-107.508-0.063c-29.028-0.017-53.17 21.89-53.934 49.27l-1.16 41.586c-0.441 15.81-12.659 35.044-27.291 42.961l-86.124 46.6c-14.632 7.917-38.49 8.229-53.345 0.67l-39.008-19.852zM400.019 158.043c107.12-61.846 244.093-25.144 305.939 81.976s25.144 244.093-81.976 305.939c-107.12 61.846-244.093 25.144-305.939-81.976s-25.144-244.093 81.976-305.939z" />
<glyph unicode="&#xe91c;" glyph-name="comment" d="M172.089 672h679.822c35.346 0 64-28.654 64-64v-454.363c0-35.346-28.654-64-64-64h-190.595c-18.538 0-36.166-8.038-48.322-22.035l-76.556-88.154c-11.588-13.344-31.799-14.767-45.143-3.179-1.224 1.063-2.365 2.217-3.414 3.453l-74.125 87.33c-12.16 14.326-30.002 22.585-48.793 22.585h-192.874c-35.346 0-64 28.654-64 64v454.363c0 35.346 28.654 64 64 64v0zM281.45 320.187c38.199 0 69.165 30.966 69.165 69.165s-30.966 69.165-69.165 69.165c-38.199 0-69.165-30.966-69.165-69.165s30.966-69.165 69.165-69.165zM742.55 320.187c38.199 0 69.165 30.966 69.165 69.165s-30.966 69.165-69.165 69.165c-38.199 0-69.165-30.966-69.165-69.165s30.966-69.165 69.165-69.165zM512 320.187c38.199 0 69.165 30.966 69.165 69.165s-30.966 69.165-69.165 69.165c-38.199 0-69.165-30.966-69.165-69.165s30.966-69.165 69.165-69.165z" />
<glyph unicode="&#xe91d;" glyph-name="cover" d="M145.455 800c-44.986 0-81.455-36.468-81.455-81.455v-244.364c0-44.986 36.468-81.455 81.455-81.455h244.364c44.986 0 81.455 36.468 81.455 81.455v244.364c0 44.986-36.468 81.455-81.455 81.455h-244.364zM145.455 702.545c0 8.837 7.163 16 16 16h212.364c8.837 0 16-7.163 16-16v0-212.364c0-8.837-7.163-16-16-16v0h-212.364c-8.837 0-16 7.163-16 16v212.364zM145.455 311.273h244.364c44.986 0 81.455-36.468 81.455-81.455v-244.364c0-44.986-36.468-81.455-81.455-81.455h-244.364c-44.986 0-81.455 36.468-81.455 81.455v244.364c0 44.986 36.468 81.455 81.455 81.455zM634.182 800h244.364c44.986 0 81.455-36.468 81.455-81.455v-244.364c0-44.986-36.468-81.455-81.455-81.455h-244.364c-44.986 0-81.455 36.468-81.455 81.455v244.364c0 44.986 36.468 81.455 81.455 81.455zM634.182 311.273h244.364c44.986 0 81.455-36.468 81.455-81.455v-244.364c0-44.986-36.468-81.455-81.455-81.455h-244.364c-44.986 0-81.455 36.468-81.455 81.455v244.364c0 44.986 36.468 81.455 81.455 81.455z" />
<glyph unicode="&#xe91e;" glyph-name="cube" d="M905.713 593.69l-378.228 214.79c-4.453 2.58-9.805 4.103-15.515 4.103s-11.062-1.523-15.663-4.183l-378.022-214.77c-9.322-5.353-15.498-15.19-15.515-26.458v-429.676c0-10.945 5.928-20.966 15.515-26.496l378.17-214.847c4.47-2.512 9.818-3.992 15.515-3.992s11.045 1.481 15.673 4.073l378.069 214.767c9.334 5.361 15.513 15.214 15.515 26.499v429.693c-0.003 11.283-6.183 21.137-15.37 26.418l-0.145 0.078zM839.369 166.314l-327.398-185.975-327.343 185.975v372.004l327.343 185.975 327.398-185.975v-372.004zM253.271 488.339c-2.619-4.386-4.165-9.663-4.165-15.301 0-11.282 6.199-21.132 15.407-26.381l216.080-122.766v-242.611c0-16.935 13.829-30.529 31.029-30.529 0.069-0.001 0.151-0.001 0.232-0.001 17.008 0 30.798 13.668 30.798 30.529 0 0 0 0.001 0 0.001v242.266l216.686 123.148c9.345 5.345 15.534 15.197 15.534 26.481 0 5.627-1.539 10.898-4.222 15.421-5.443 9.056-15.421 15.124-26.829 15.124-5.709 0-11.058-1.519-15.661-4.172l-216.188-122.781-216.28 122.861c-4.438 2.542-9.762 4.043-15.44 4.043-11.443 0-21.452-6.096-26.899-15.19l-0.082-0.142z" />
<glyph unicode="&#xe91f;" glyph-name="apple" d="M690.577 531.045c-19.206 0-41.404-4.647-66.661-14.532-41.924-16.408-75.707-25.097-105.033-25.097-28.82 0-63.059 8.444-106.83 24.526-28.142 10.34-50.101 15.103-64.864 15.103-50.202 0-89.529-23.783-126.293-81.592-22.097-31.711-31.596-81.927-25.057-152.674 6.905-74.715 32.393-146.157 76.755-214.62 41.517-62.848 74.441-88.822 92.205-88.822 4.506 0 17.729 3.779 37.149 12.744 38.408 17.73 77.566 26.886 116.935 26.886 39.179 0 78.447-9.064 117.368-26.581 20.32-9.146 34.192-13.048 38.918-13.048 3.205 0 11.443 3.662 24.714 14.879 19.585 16.554 42.329 44.035 66.442 81.117 7.551 12.083 14.82 24.253 21.809 36.511-59.347 45.065-94.188 110.988-101.423 193.485-6.812 77.671 13.858 145.036 59.686 198.198-17.822 9.203-36.283 13.518-55.82 13.518zM864.473 515.377c-74.841-42.565-108.593-105.677-101.255-189.339s49.894-140.169 127.67-169.525c-17.61-36.694-37.42-72.653-59.433-107.879-57.232-88.065-109.326-132.097-156.286-132.097-17.61 0-41.089 6.605-70.439 19.815s-57.965 19.815-85.847 19.815c-27.882 0-56.131-6.605-84.746-19.815s-51.728-19.815-69.338-19.815c-49.894 0-101.989 41.096-156.286 123.291-51.362 79.259-81.078 162.552-89.149 249.884s4.769 155.214 38.521 203.65c48.427 76.323 111.527 114.484 189.304 114.484 24.947 0 55.397-6.605 91.35-19.815s62.734-19.815 80.344-19.815c17.61 0 43.29 6.605 77.042 19.815s65.302 19.815 94.652 19.815c66.036 0 124.001-30.822 173.895-92.468zM628.944 671.692c-38.154-49.904-84.379-73.387-138.676-70.452-7.337 48.436 8.071 96.137 46.225 143.105 38.154 45.5 83.646 70.452 136.475 74.855 7.337-49.904-7.337-99.073-44.024-147.508z" />
<glyph unicode="&#xe920;" glyph-name="cursor" d="M103.969 863.089l884.666-527.396c7.59-4.525 10.075-14.346 5.55-21.936-2.535-4.252-6.895-7.091-11.808-7.69l-434.244-52.898c-10.975-1.337-20.482-8.244-25.145-18.269l-184.498-396.644c-3.727-8.012-13.243-11.486-21.255-7.759-4.488 2.088-7.757 6.135-8.854 10.962l-228.207 1004.342c-1.958 8.617 3.44 17.19 12.057 19.147 4.006 0.91 8.209 0.245 11.738-1.859z" />
<glyph unicode="&#xe921;" glyph-name="arrow_down" d="M460.8 300.8h-164.276c-17.673 0-32-14.327-32-32 0-7.207 2.433-14.203 6.905-19.855l217.27-274.605c10.966-13.86 31.091-16.205 44.95-5.24 2.001 1.583 3.805 3.399 5.374 5.411l214.252 274.605c10.871 13.934 8.389 34.042-5.545 44.914-5.624 4.388-12.552 6.771-19.684 6.771h-164.845v428.8c0 17.673-14.327 32-32 32v0h-38.4c-17.673 0-32-14.327-32-32v-428.8z" />
<glyph unicode="&#xe922;" glyph-name="keyboard" d="M384.511 496c7.199 155.976 89.118 154.393 161.008 164.401 72.418 10.085 92.592 16.764 92.592 138.434 0.776 19.121 16.682 33.921 35.563 33.135 17.717-0.786 31.942-15.192 32.718-33.135 0-181.392-75.781-195.929-151.432-206.407-69.205-9.629-98.532-1.335-102.265-96.428h443.306c35.346 0 64-28.654 64-64v-448c0-35.346-28.654-64-64-64h-736c-35.346 0-64 28.654-64 64v448c0 35.346 28.654 64 64 64v0h224.511zM384 160h96v96h-96v-96zM528 160h96v96h-96v-96zM672 160h96v96h-96v-96zM768 16h96v96h-96v-96zM240 160h96v96h-96v-96zM192 16h96v96h-96v-96zM576 400h-96v-96h96v96zM432 400h-96v-96h95.854l0.146 96zM720 400h-96v-96h96v96zM288 400h-96v-96h96v96zM768 304h96v96h-96v-96zM336 16h384v96h-384v-96z" />
<glyph unicode="&#xe923;" glyph-name="left_double_bracket" d="M451.4 45.497l0.002-0.003c-17.79 0-33.756 8.027-44.718 20.755l-232.218 239.845c-12.322 11.319-20.092 27.813-20.092 46.185 0 15.467 5.514 29.598 14.609 40.438l239.328 247.4c10.887 11.673 26.163 18.948 43.094 18.948 33.049 0 59.84-27.674 59.84-61.807 0-19.78-9.007-37.376-23.004-48.69l-189.917-196.153 191.134-197.414c13.302-11.335 21.781-28.496 21.781-47.698 0-34.134-26.79-61.807-59.84-61.807zM809.8 45.497l0.002-0.003c-17.79 0-33.756 8.027-44.718 20.755l-232.218 239.845c-12.322 11.319-20.092 27.813-20.092 46.185 0 15.467 5.514 29.598 14.609 40.438l239.328 247.4c10.887 11.673 26.163 18.948 43.094 18.948 33.049 0 59.84-27.674 59.84-61.807 0-19.78-9.007-37.376-23.004-48.69l-189.917-196.153 191.134-197.414c13.302-11.335 21.781-28.496 21.781-47.698 0-34.134-26.79-61.807-59.84-61.807z" />
<glyph unicode="&#xe924;" glyph-name="list" d="M76.8 582.4h17.067c42.415 0 76.8 34.385 76.8 76.8v0 0c0 42.415-34.385 76.8-76.8 76.8h-17.067c-42.415 0-76.8-34.385-76.8-76.8v0 0c0-42.415 34.385-76.8 76.8-76.8zM343.194 582.4c-42.357 0-76.694 34.385-76.694 76.8s34.337 76.8 76.694 76.8h604.113c42.357 0 76.694-34.385 76.694-76.8s-34.337-76.8-76.694-76.8h-604.113zM76.8 275.2c-42.415 0-76.8 34.385-76.8 76.8v0 0c0 42.415 34.385 76.8 76.8 76.8v0h17.067c42.415 0 76.8-34.385 76.8-76.8s-34.385-76.8-76.8-76.8v0h-17.067zM333.757 275.2c-42.944 0-77.757 34.385-77.757 76.8s34.813 76.8 77.757 76.8h612.486c42.944 0 77.757-34.385 77.757-76.8s-34.813-76.8-77.757-76.8h-612.486zM76.8-32c-42.415 0-76.8 34.385-76.8 76.8v0 0c0 42.415 34.385 76.8 76.8 76.8v0h17.067c42.415 0 76.8-34.385 76.8-76.8s-34.385-76.8-76.8-76.8v0h-17.067zM343.194-32c-42.357 0-76.694 34.385-76.694 76.8s34.337 76.8 76.694 76.8h604.113c42.357 0 76.694-34.385 76.694-76.8s-34.337-76.8-76.694-76.8h-604.113z" />
<glyph unicode="&#xe925;" glyph-name="lock_s" d="M417.564 448.705c0 24.895 14.791 99.562 88.747 99.562s88.747-74.667 88.747-99.562v-19.905h59.164v19.905c0 88.405-59.164 159.295-147.911 159.295s-147.911-70.89-147.911-159.295v-19.905h59.164v19.905zM307.2 379.2v-259.2c0-13.255 10.745-24 24-24h361.6c13.255 0 24 10.745 24 24v259.2c0 13.255-10.745 24-24 24h-361.6c-13.255 0-24-10.745-24-24z" />
<glyph unicode="&#xe926;" glyph-name="magnet" d="M803.399 166.872l-153.913-153.913c-135.4-135.4-355.195-135.931-489.939-1.187-134.749 134.749-134.214 354.539 1.187 489.939l153.913 153.913 143.752-143.752-153.913-153.913c-55.752-55.752-55.97-146.253-0.487-201.736s145.984-55.265 201.731 0.492l153.916 153.911 143.754-143.754zM858.254 221.727l92.343 92.343c1.033 1.033 1.033 2.707 0 3.74l-140.012 140.012c-1.033 1.033-2.707 1.033-3.74 0v0l-92.345-92.342 143.753-143.753zM369.501 710.479l92.343 92.343c1.033 1.033 2.707 1.033 3.74 0v0l140.012-140.012c1.033-1.033 1.033-2.707 0-3.74l-92.343-92.343-143.752 143.752z" />
<glyph unicode="&#xe927;" glyph-name="master" d="M236.8 44.8h550.4c17.673 0 32 14.327 32 32v550.4c0 17.673-14.327 32-32 32h-550.4c-17.673 0-32-14.327-32-32v-550.4c0-17.673 14.327-32 32-32zM192 736h640c35.346 0 64-28.654 64-64v-640c0-35.346-28.654-64-64-64h-640c-35.346 0-64 28.654-64 64v640c0 35.346 28.654 64 64 64zM471.040 458.24h348.16v72.96h-614.4v-72.96h204.8v-413.44h61.44z" />
<glyph unicode="&#xe928;" glyph-name="arrow_up" d="M460.8 434.87h-164.276c-17.673 0-32 14.327-32 32 0 7.207 2.433 14.203 6.905 19.855l217.27 274.605c10.966 13.86 31.091 16.205 44.95 5.24 2.001-1.583 3.805-3.399 5.374-5.411l214.252-274.605c10.871-13.934 8.389-34.042-5.545-44.914-5.624-4.388-12.552-6.771-19.684-6.771h-164.845v-428.8c0-17.673-14.327-32-32-32v0h-38.4c-17.673 0-32 14.327-32 32v428.8z" />
<glyph unicode="&#xe929;" glyph-name="back_fc" d="M512-160c-282.77 0-512 229.23-512 512s229.23 512 512 512c282.77 0 512-229.23 512-512s-229.23-512-512-512zM624.531 111c20.625 19.875 20.625 52.188 0 72.125l-176.778 168.875 176.778 168.875c20.625 19.875 20.625 52.187 0 72.125-20.757 20-54.297 20-75.054 0l-214.009-204.875c-20.625-20-20.625-52.188 0-72.25l214.009-204.875c20.757-20 54.297-20 75.054 0z" />
<glyph unicode="&#xe92a;" glyph-name="forward_fc" d="M512 864c282.77 0 512-229.23 512-512s-229.23-512-512-512c-282.77 0-512 229.23-512 512s229.23 512 512 512zM399.469 593c-20.625-19.875-20.625-52.188 0-72.125l176.778-168.875-176.778-168.875c-20.625-19.875-20.625-52.187 0-72.125 20.757-20 54.297-20 75.054 0l214.009 204.875c20.625 20 20.625 52.188 0 72.25l-214.009 204.875c-20.757 20-54.297 20-75.054 0z" />
<glyph unicode="&#xe92b;" glyph-name="bold" d="M382.136 417.040h149.871c42.595 0 73.226 7.493 91.895 22.481s28.002 37.468 28.002 67.442c0 19.983-3.155 35.759-9.466 47.328s-14.987 20.509-26.030 26.819c-11.043 6.31-23.795 10.386-38.257 12.226s-29.843 2.761-46.145 2.761h-149.871v-179.057zM307.2 659.2h204.298c12.095 0 25.11-0.131 39.045-0.394s27.739-1.052 41.412-2.366c13.673-1.315 26.425-3.287 38.257-5.916s21.955-6.573 30.369-11.832c18.405-11.043 34.050-26.293 46.933-45.75s19.325-43.384 19.325-71.78c0-29.974-7.231-55.873-21.692-77.696s-35.101-37.994-61.92-48.511c34.707-8.94 61.263-24.715 79.668-48.905s27.608-53.638 27.608-88.345c0-20.509-3.681-40.491-11.043-59.948s-18.274-36.679-32.735-51.666c-14.461-14.987-32.341-27.082-53.638-36.285s-45.881-13.804-73.752-13.804h-272.134v563.2zM382.136 159.104h187.733c33.13 0 59.028 8.94 77.696 26.819s28.002 42.595 28.002 74.147c0 18.405-3.418 33.655-10.254 45.75s-15.907 21.692-27.213 28.791c-11.306 7.099-24.321 12.095-39.045 14.987s-29.974 4.338-45.75 4.338h-171.169v-194.832z" />
<glyph unicode="&#xe92c;" glyph-name="italic" d="M460.8 659.2h204.8v-51.2h-204.8v51.2zM512 608h76.8l-102.4-460.8h-76.8l102.4 460.8zM358.4 147.2h204.8v-51.2h-204.8v51.2z" />
<glyph unicode="&#xe92d;" glyph-name="underline" d="M256 44.8h512v-51.2h-512v51.2zM716.8 339.375c0-64.059-17.066-104.738-51.2-136.767s-89.775-55.408-152.899-55.408c-64.526 0-118.064 20.573-154.301 51.2s-51.2 74.111-51.2 140.975v319.825h66.63v-319.825c0-44.888 11.923-66.63 35.77-89.775s58.213-46.992 103.101-46.992c42.55 0 79.488 23.846 101.699 46.992s35.77 44.887 35.77 89.775v319.825h66.63v-319.825z" />
<glyph unicode="&#xe92e;" glyph-name="strikethrough" d="M362.521 403.2h-157.721v-51.2h274.927c8.015-2.024 16.082-3.943 24.201-5.758 22.251-4.974 44.11-9.817 65.576-14.529s40.707-10.864 57.723-18.456c17.016-7.592 30.628-17.408 40.838-29.45s15.314-27.749 15.314-47.12c0-20.419-4.188-37.173-12.565-50.262s-19.372-23.429-32.984-31.021c-13.613-7.592-28.927-12.958-45.942-16.099s-33.9-4.712-50.654-4.712c-20.943 0-41.361 2.618-61.257 7.853s-37.304 13.351-52.225 24.346c-14.922 10.995-26.963 25-36.126 42.016s-13.743 37.304-13.743 60.864h-70.681c0-34.032 6.152-63.482 18.456-88.351s29.058-45.288 50.262-61.257c21.204-15.969 45.811-27.88 73.822-35.733s57.722-11.78 89.136-11.78c25.655 0 51.44 3.010 77.356 9.031s49.345 15.707 70.288 29.058c20.943 13.351 38.089 30.628 51.44 51.832s20.026 46.728 20.026 76.571c0 27.749-5.105 50.785-15.314 69.11-9.734 17.472-22.562 32.087-38.483 43.847h115.012v51.2h-250.857c-18.743 4.332-37.204 8.383-55.383 12.152-21.466 4.45-40.707 10.079-57.723 16.885s-30.628 15.576-40.838 26.309c-10.209 10.733-15.314 24.738-15.314 42.016 0 18.325 3.534 33.639 10.602 45.942s16.492 22.12 28.272 29.45c11.78 7.33 25.262 12.565 40.445 15.707s30.628 4.712 46.335 4.712c38.744 0 70.55-9.031 95.419-27.094s39.398-47.251 43.586-87.566h70.681c-1.047 30.89-6.937 57.461-17.67 79.712s-25.393 40.707-43.979 55.367c-18.586 14.66-40.183 25.393-64.791 32.199s-51.309 10.209-80.105 10.209c-25.655 0-50.654-3.272-75-9.817s-46.073-16.492-65.183-29.843c-19.11-13.351-34.424-30.366-45.942-51.047s-17.277-45.157-17.277-73.429c0-25.655 5.105-46.989 15.314-64.005 6.286-10.477 13.863-19.763 22.729-27.858z" />
<glyph unicode="&#xe92f;" glyph-name="check" d="M87.469 346.818c0-20.643 7.349-38.181 22.047-52.617l221.789-212.631c14.698-14.435 32.923-21.653 54.676-21.653 21.165 0 39.096 7.218 53.794 21.653l456.364 439.121c15.286 14.435 22.929 31.902 22.929 52.4s-7.643 37.82-22.929 51.967c-15.286 14.435-33.437 21.653-54.455 21.653s-39.169-7.218-54.455-21.653l-401.248-386.721-167.554 161.097c-15.286 14.435-33.437 21.653-54.455 21.653s-39.169-7.218-54.455-21.653c-14.698-14.435-22.047-31.974-22.047-52.616z" />
<glyph unicode="&#xe930;" glyph-name="check_s" d="M296.96 349.7c0-10.836 3.858-20.043 11.573-27.62l116.424-111.618c7.715-7.578 17.282-11.366 28.701-11.366 11.11 0 20.523 3.789 28.238 11.366l239.561 230.51c8.024 7.578 12.036 16.746 12.036 27.507s-4.012 19.853-12.036 27.279c-8.024 7.578-17.552 11.366-28.585 11.366s-20.561-3.789-28.585-11.366l-210.629-203.003-87.955 84.566c-8.024 7.578-17.552 11.366-28.585 11.366s-20.561-3.789-28.585-11.366c-7.715-7.578-11.573-16.784-11.573-27.62z" />
<glyph unicode="&#xe931;" glyph-name="book" d="M307.33-57.2v818.4h307.037v-306.75l76.882 102.3 76.751-102.3v306.75l70.057 0.274c17.673 0.069 32.056-14.202 32.125-31.874 0-0.039 0-0.078 0-0.116l0.209-754.683h0.009c0.005-17.673-14.318-32.004-31.991-32.009-0.003 0-0.006 0-0.009 0l-531.070 0.009zM185.6 761.6h70.4v-818.401l-70.15-0.547c-17.673-0.138-32.111 14.077-32.249 31.749-0.001 0.083-0.001 0.166-0.001 0.25v754.949c0 17.673 14.327 32 32 32z" />
<glyph unicode="&#xe932;" glyph-name="day_night" d="M821.867 688h-645.867v-645.867l645.867 645.867zM120 800h784c30.928 0 56-25.072 56-56v-784c0-30.928-25.072-56-56-56h-784c-30.928 0-56 25.072-56 56v784c0 30.928 25.072 56 56 56z" />
<glyph unicode="&#xe933;" glyph-name="preview" d="M34.135 385.422c-0.759 81.918 198.332 318.578 477.864 318.578s477.812-239.852 477.864-318.578c0.052-78.726-191.391-318.578-477.864-318.578s-477.105 236.66-477.864 318.578zM501.886 189.546c107.522 0 194.686 84.6 194.686 188.96s-87.164 188.96-194.686 188.96c-107.522 0-194.686-84.6-194.686-188.96s87.164-188.96 194.686-188.96zM546.133 337.001c0-47.128-38.205-85.333-85.333-85.333s-85.333 38.205-85.333 85.333c0 47.128 38.205 85.333 85.333 85.333s85.333-38.205 85.333-85.333zM620.721 420.267c0-18.851-15.282-34.133-34.133-34.133s-34.133 15.282-34.133 34.133c0 18.851 15.282 34.133 34.133 34.133s34.133-15.282 34.133-34.133z" />
<glyph unicode="&#xe934;" glyph-name="question_c" d="M504.144 864c278.488 0 504.104-225.512 504.102-503.858 0-278.61-225.614-504.388-504.104-504.388-278.336 0-504.142 225.776-504.142 504.388 0 278.346 225.806 503.858 504.144 503.858zM504.141 800.985c-243.546 0-441.126-197.323-441.126-440.876 0-243.786 197.58-441.34 441.124-441.34 243.679 0 441.091 197.556 441.091 441.34 0.002 243.553-197.413 440.876-441.089 440.876zM540.069 79.634c-11.709-10.42-25.279-15.656-40.651-15.656-15.905 0-29.778 5.143-41.62 15.449-11.861 10.287-17.803 24.689-17.803 43.194 0 16.415 5.751 30.232 17.214 41.429s25.526 16.796 42.208 16.796c16.416 0 30.233-5.599 41.449-16.796 11.198-11.197 16.815-25.012 16.815-41.429-0.021-18.239-5.886-32.569-17.614-42.986zM686.070 441.576c-8.996-16.681-19.68-31.065-32.073-43.194-12.356-12.126-34.578-32.508-66.653-61.164-8.844-8.085-15.961-15.182-21.293-21.292-5.333-6.131-9.318-11.727-11.919-16.814-2.62-5.085-4.63-10.172-6.054-15.257-1.424-5.066-3.568-14.006-6.472-26.777-4.933-27.101-20.439-40.649-46.497-40.649-13.551 0-24.938 4.422-34.219 13.284-9.243 8.862-13.855 22.014-13.855 39.473 0 21.881 3.397 40.841 10.173 56.875 6.738 16.037 15.753 30.099 26.95 42.225 11.216 12.126 26.322 26.513 45.358 43.194 16.682 14.594 28.734 25.6 36.154 33.022 7.439 7.438 13.684 15.712 18.751 24.822 5.106 9.129 7.611 19.016 7.611 29.7 0 20.856-7.723 38.429-23.247 52.757-15.505 14.328-35.51 21.502-60.011 21.502-28.676 0-49.78-7.231-63.331-21.692s-24.994-35.753-34.389-63.898c-8.881-29.454-25.697-44.179-50.427-44.179-14.595 0-26.911 5.143-36.95 15.43-10.021 10.287-15.031 21.425-15.031 33.419 0 24.748 7.952 49.836 23.838 75.247 15.905 25.411 39.096 46.458 69.593 63.121 30.478 16.681 66.065 25.033 106.697 25.033 37.786 0 71.131-6.983 100.055-20.933 28.923-13.929 51.279-32.889 67.050-56.875 15.753-23.968 23.647-50.025 23.647-78.17 0.037-22.112-4.459-41.527-13.455-58.208z" />
<glyph unicode="&#xe935;" glyph-name="question_fc" d="M512.021 864c-282.687 0-512.021-229.036-512.021-511.731 0-282.965 229.334-512.269 512.019-512.269 282.841 0 511.981 229.306 511.981 512.269 0.002 282.695-229.14 511.731-511.979 511.731zM548.508 67.378c-11.892-10.583-25.674-15.901-41.286-15.901-16.153 0-30.243 5.224-42.27 15.69-12.046 10.447-18.081 25.075-18.081 43.869 0 16.672 5.84 30.704 17.483 42.076s25.925 17.058 42.868 17.058c16.672 0 30.705-5.686 42.097-17.058 11.373-11.372 17.078-25.402 17.078-42.076-0.021-18.524-5.978-33.078-17.889-43.658zM696.79 434.975c-9.136-16.942-19.987-31.551-32.574-43.869-12.549-12.316-35.118-33.016-67.695-62.12-8.982-8.211-16.21-15.42-21.626-21.625-5.416-6.227-9.464-11.91-12.105-17.077-2.661-5.164-4.702-10.331-6.149-15.496-1.446-5.145-3.623-14.225-6.573-27.195-5.010-27.524-20.758-41.284-47.224-41.284-13.763 0-25.327 4.491-34.753 13.492-9.388 9.001-14.071 22.358-14.071 40.089 0 22.223 3.45 41.479 10.332 57.764 6.843 16.288 15.999 30.569 27.371 42.885 11.392 12.316 26.734 26.927 46.066 43.869 16.943 14.822 29.183 26 36.719 33.538 7.555 7.555 13.898 15.958 19.044 25.21 5.186 9.271 7.73 19.313 7.73 30.164 0 21.182-7.844 39.029-23.611 53.581-15.748 14.552-36.064 21.838-60.948 21.838-29.124 0-50.558-7.344-64.32-22.031s-25.384-36.312-34.926-64.896c-9.020-29.915-26.098-44.87-51.214-44.87-14.823 0-27.331 5.224-37.528 15.671-10.177 10.447-15.266 21.76-15.266 33.941 0 25.134 8.077 50.615 24.211 76.423 16.153 25.808 39.707 47.184 70.68 64.107 30.954 16.942 67.097 25.424 108.364 25.424 38.376 0 72.243-7.092 101.618-21.26 29.375-14.146 52.080-33.403 68.098-57.764 15.999-24.342 24.016-50.807 24.016-79.391 0.038-22.457-4.529-42.176-13.666-59.118z" />
<glyph unicode="&#xe936;" glyph-name="recycle" d="M153.6 524.8v0c0 17.673 14.327 32 32 32v0h652.8c17.673 0 32-14.327 32-32v0-531.2c0-56.554-45.846-102.4-102.4-102.4h-512c-56.554 0-102.4 45.846-102.4 102.4v531.2zM751.433 185.408l-37.143 63.299-23.259-51.492-56.173 3.983 37.143-63.299h-106.637l-44.544-46.585 44.544-46.514h106.849c38.553 0 69.705 16.571 85.564 45.376 15.647 28.662 13.18 63.725-6.343 95.232zM512.433 406.171c0.493 0.925 1.057 1.636 1.48 2.347 0.282-0.427 0.493-0.853 0.846-1.28l69.705-119.485 63.292-16.145 16.211 63.441-70.41 120.481c-19.594 31.792-48.702 50.070-79.714 50.070s-60.050-18.278-80.277-50.923l-44.121-75.034 54.763 1.067 24.598-48.648 43.628 74.109zM351.949 137.97c0.047 0.095 21.050 36.983 63.010 110.666l-16.352 60.881-63.715-14.438-62.516-109.741c-19.523-33.57-21.708-68.775-5.92-96.655s46.87-43.882 85.282-43.882h113.756l-32.844 46.585 32.914 46.585h-113.615zM409.6 787.2v9.6c0 8.837 7.163 16 16 16h172.8c8.837 0 16-7.163 16-16v-9.6c0-14.138 11.462-25.6 25.6-25.6h268.8c35.346 0 64-28.654 64-64v-25.6c0-35.346-28.654-64-64-64h-793.6c-35.346 0-64 28.654-64 64v25.6c0 35.346 28.654 64 64 64h268.8c14.138 0 25.6 11.462 25.6 25.6z" />
<glyph unicode="&#xe937;" glyph-name="reply" d="M19.969 433.291l409.414 297.364c9.589 6.296 21.941 7.087 32.303 2.069s17.119-15.062 17.672-26.268v-156.671c446.255 0 530.828-300.156 544.604-460.239 0.659-13.089-7.245-25.167-19.749-30.177s-26.909-1.872-35.993 7.84c-197.819 223.527-488.862 172.338-488.862 172.338v-156.671c-0.553-11.206-7.31-21.251-17.672-26.268s-22.714-4.226-32.303 2.069l-409.414 297.364c-12.569 9.109-19.969 23.422-19.969 38.625s7.4 29.516 19.969 38.625z" />
<glyph unicode="&#xe938;" glyph-name="right_double_bracket" d="M572.6 45.497l-0.002-0.003c17.79 0 33.756 8.027 44.718 20.755l232.218 239.845c12.322 11.319 20.092 27.813 20.092 46.185 0 15.467-5.514 29.598-14.609 40.438l-239.328 247.4c-10.887 11.673-26.163 18.948-43.094 18.948-33.049 0-59.84-27.674-59.84-61.807 0-19.78 9.007-37.376 23.004-48.69l189.917-196.153-191.134-197.414c-13.302-11.335-21.781-28.496-21.781-47.698 0-34.134 26.79-61.807 59.84-61.807zM214.2 45.497l-0.002-0.003c17.79 0 33.756 8.027 44.718 20.755l232.218 239.845c12.322 11.319 20.092 27.813 20.092 46.185 0 15.467-5.514 29.598-14.609 40.438l-239.328 247.4c-10.887 11.673-26.163 18.948-43.094 18.948-33.049 0-59.84-27.674-59.84-61.807 0-19.78 9.007-37.376 23.004-48.69l189.917-196.153-191.134-197.414c-13.302-11.335-21.781-28.496-21.781-47.698 0-34.134 26.79-61.807 59.84-61.807z" />
<glyph unicode="&#xe939;" glyph-name="degree" d="M488.929 378.707c45.91-46.27 74.271-109.976 74.271-180.307 0-10.837-0.673-21.517-1.981-32h265.805c19.44 0 35.2-15.76 35.2-35.2s-15.76-35.2-35.2-35.2h-642.808c-8.271 0-16.222 3.203-22.183 8.937-12.737 12.251-13.131 32.509-0.88 45.246v0l462.566 480.918c14.945 15.538 39.638 16.070 55.239 1.191v0 0c0.044-0.042 0.088-0.084 0.132-0.127 15.438-14.863 15.904-39.428 1.040-54.865l-191.203-198.593zM509.515 166.4c1.636 10.427 2.485 21.114 2.485 32 0 55.843-22.35 106.466-58.594 143.412l-158.448-164.573c-1.148-1.193-1.79-2.784-1.79-4.439 0-3.535 2.865-6.4 6.4-6.4h209.946z" />
<glyph unicode="&#xe93a;" glyph-name="download" d="M585.143 329.322l127.2 112.825c32.498 27.899 85.168 27.899 117.564 0 32.6-28.077 32.6-73.446 0-101.524l-245.809-216.342c-32.702-27.899-85.168-27.899-117.768 0l-245.809 216.342c-32.6 28.077-32.6 73.446 0 101.524 32.498 27.899 85.168 27.899 117.564 0l100.771-89.383v374.093c0 40.396 32.747 73.143 73.143 73.143s73.143-32.747 73.143-73.143v-397.535zM146.286 507.429v-480c0-17.673 14.327-32 32-32h667.429c17.673 0 32 14.327 32 32v480c0 40.396 32.747 73.143 73.143 73.143s73.143-32.747 73.143-73.143v-512c0-40.396-16.374-76.967-42.846-103.44s-63.044-42.846-103.44-42.846h-731.429c-40.396 0-76.967 16.374-103.44 42.846s-42.846 63.044-42.846 103.44v512c0 40.396 32.747 73.143 73.143 73.143s73.143-32.747 73.143-73.143z" />
<glyph unicode="&#xe93b;" glyph-name="duplicate" d="M234.667 661.333h704c17.673 0 32-14.327 32-32v-704c0-17.673-14.327-32-32-32h-704c-17.673 0-32 14.327-32 32v704c0 17.673 14.327 32 32 32v0zM373.333 490.667v-426.667h426.667v426.667h-426.667zM800 746.667c0 47.128-38.205 85.333-85.333 85.333h-597.333c-47.128 0-85.333-38.205-85.333-85.333v-597.333c0-47.128 38.205-85.333 85.333-85.333v597.333c0 47.128 38.205 85.333 85.333 85.333h597.333z" />
<glyph unicode="&#xe93c;" glyph-name="element" d="M137.063 285.583l368.537-246.883 368.537 246.883 24.679-16.494c8.192-8.213 16.384-20.531 16.384-32.85s-4.096-24.638-16.384-32.85l-368.64-246.376c-8.192-4.106-16.384-8.213-24.576-8.213s-16.384 4.106-24.576 8.213l-368.64 246.376c-8.192 8.213-16.384 20.531-16.384 32.85s8.192 24.638 16.384 32.85l24.679 16.494zM247.535 359.415l0.017 0.011-135.168 90.338c-8.192 8.213-16.384 20.531-16.384 32.85s8.192 24.638 20.48 32.85l368.64 246.376c12.288 8.213 32.768 8.213 45.056 0l368.64-246.376c8.192-8.213 16.384-20.531 16.384-32.85s-8.192-24.638-16.384-32.85l-393.216-262.803-258.065 172.454z" />
<glyph unicode="&#xe93d;" glyph-name="file_f" d="M499.2 768v-243.2c0-35.346 28.654-64 64-64h243.2v-448c0-35.346-28.654-64-64-64h-486.4c-35.346 0-64 28.654-64 64v691.2c0 35.346 28.654 64 64 64v0h243.2zM499.2 768h51.2zM806.4 512h-224c-17.673 0-32 14.327-32 32v0 224l256-256z" />
<glyph unicode="&#xe93e;" glyph-name="file_text" d="M499.2 768v-243.2c0-35.346 28.654-64 64-64h243.2v-448c0-35.346-28.654-64-64-64h-486.4c-35.346 0-64 28.654-64 64v691.2c0 35.346 28.654 64 64 64v0h243.2zM499.2 768h51.2zM806.4 512h-224c-17.673 0-32 14.327-32 32v224l256-256zM320 358.4v0c-14.138 0-25.6-11.462-25.6-25.6s11.462-25.6 25.6-25.6h358.4c14.138 0 25.6 11.462 25.6 25.6s-11.462 25.6-25.6 25.6h-358.4zM320 204.8c-14.138 0-25.6-11.462-25.6-25.6s11.462-25.6 25.6-25.6h358.4c14.138 0 25.6 11.462 25.6 25.6s-11.462 25.6-25.6 25.6h-358.4z" />
<glyph unicode="&#xe93f;" glyph-name="file" d="M518.4 693.527h-249.6v-670.255h460.8v461.731l-153.6 166.819v-107.241c0-41.13 34.385-74.473 76.8-74.473h76.8v-74.473h-76.8c-84.831 0-153.6 66.685-153.6 148.945v148.945h19.2zM268.8 768h273.226c21.638 0 42.272-8.851 56.827-24.377l187.574-200.079c12.852-13.708 19.973-31.569 19.973-50.096v-470.176c0-41.13-34.385-74.473-76.8-74.473h-460.8c-42.415 0-76.8 33.343-76.8 74.473v670.255c0 19.347 7.608 36.971 20.081 50.212 14.044 14.908 34.255 24.261 56.719 24.261z" />
<glyph unicode="&#xe940;" glyph-name="grid" d="M137.143-86.857h749.714c35.346 0 64 28.654 64 64v749.714c0 35.346-28.654 64-64 64h-749.714c-35.346 0-64-28.654-64-64v-749.714c0-35.346 28.654-64 64-64zM809.143 22.857h-594.286c-17.673 0-32 14.327-32 32v594.286c0 17.673 14.327 32 32 32h594.286c17.673 0 32-14.327 32-32v-594.286c0-17.673-14.327-32-32-32zM219.429 498.286h585.143v-73.143h-585.143v73.143zM219.429 278.857h585.143v-73.143h-585.143v73.143zM365.714 644.571h73.143v-585.143h-73.143v585.143zM585.143 644.571h73.143v-585.143h-73.143v585.143z" />
<glyph unicode="&#xe941;" glyph-name="img" d="M52.111 659.17l-0.964-646.448c-0.050-33.486 27.055-60.672 60.541-60.722 0.030 0 0.060 0 0.090 0h800.358c33.486 0 60.632 27.146 60.632 60.632v646.737h0.020c0 33.486-27.146 60.632-60.632 60.632-0.007 0-0.014 0-0.020 0l-799.415-0.289c-33.443-0.011-60.561-27.099-60.611-60.541zM656.807 359.299l-241.818-239.299-99.949 98.908c-11.809 11.686-30.824 11.69-42.638 0.010l-124.324-122.917v491.621c0 20.092 16.287 36.379 36.379 36.379h654.911c20.092 0 36.379-16.287 36.379-36.379v-467.621l-173.185 235.701c-9.914 13.492-28.888 16.393-42.381 6.48-1.193-0.877-2.321-1.84-3.374-2.882zM390.677 326.4c-48.182 0-87.364 38.681-87.364 86.444 0 47.675 39.093 86.356 87.364 86.356 48.182 0 87.275-38.681 87.275-86.356 0-47.762-39.093-86.444-87.275-86.444z" />
<glyph unicode="&#xe942;" glyph-name="inspect" d="M307.922 611.388c22.613-23.481 22.613-61.588 0-85.088l-136.062-141.329 136.062-141.329c22.613-23.504 22.613-61.611 0-85.119-11.315-11.726-26.153-17.618-40.964-17.618s-29.657 5.891-40.964 17.618l-177.007 183.905c-22.648 23.491-22.648 61.606 0 85.096l177.007 183.864c22.614 23.537 59.306 23.537 81.928 0zM975.020 427.098c22.64-23.49 22.64-61.606 0.001-85.096l-177.017-183.905c-11.307-11.726-26.153-17.618-40.964-17.618-14.82 0-29.649 5.891-40.955 17.618-22.622 23.508-22.622 61.615 0 85.119l136.052 141.33-136.052 141.329c-22.622 23.499-22.622 61.605 0 85.086 22.613 23.537 59.297 23.537 81.919 0l177.016-183.864zM607.055 701.76c23.913-7.77 36.999-33.453 29.229-57.366l-178.198-548.436c-7.77-23.913-33.453-36.999-57.366-29.229s-36.999 33.453-29.229 57.366l178.198 548.436c7.77 23.913 33.453 36.999 57.366 29.229z" />
<glyph unicode="&#xe943;" glyph-name="minus_c" d="M288 416h448c17.673 0 32-14.327 32-32v-64c0-17.673-14.327-32-32-32h-448c-17.673 0-32 14.327-32 32v64c0 17.673 14.327 32 32 32zM512-160c-282.77 0-512 229.23-512 512s229.23 512 512 512c282.77 0 512-229.23 512-512s-229.23-512-512-512zM512-96c247.424 0 448 200.576 448 448s-200.576 448-448 448c-247.424 0-448-200.576-448-448s200.576-448 448-448z" />
<glyph unicode="&#xe944;" glyph-name="minus_cb" d="M288 416h448c17.673 0 32-14.327 32-32v-64c0-17.673-14.327-32-32-32h-448c-17.673 0-32 14.327-32 32v64c0 17.673 14.327 32 32 32zM512-160c-282.77 0-512 229.23-512 512s229.23 512 512 512c282.77 0 512-229.23 512-512s-229.23-512-512-512zM512-32c212.077 0 384 171.923 384 384s-171.923 384-384 384c-212.077 0-384-171.923-384-384s171.923-384 384-384z" />
<glyph unicode="&#xe945;" glyph-name="widget_align_left" d="M339.2 300.8h448c17.673 0 32-14.327 32-32v-89.6c0-17.673-14.327-32-32-32h-448c-17.673 0-32 14.327-32 32v89.6c0 17.673 14.327 32 32 32v0zM339.2 556.8h243.2c17.673 0 32-14.327 32-32v-89.6c0-17.673-14.327-32-32-32h-243.2c-17.673 0-32 14.327-32 32v89.6c0 17.673 14.327 32 32 32v0zM204.8 659.2h51.2v-614.4h-51.2v614.4z" />
<glyph unicode="&#xe946;" glyph-name="widget_align_right" d="M768 659.2h51.2v-614.4h-51.2v614.4zM236.8 300.8h448c17.673 0 32-14.327 32-32v-89.6c0-17.673-14.327-32-32-32h-448c-17.673 0-32 14.327-32 32v89.6c0 17.673 14.327 32 32 32v0zM441.6 556.8h243.2c17.673 0 32-14.327 32-32v-89.6c0-17.673-14.327-32-32-32h-243.2c-17.673 0-32 14.327-32 32v89.6c0 17.673 14.327 32 32 32z" />
<glyph unicode="&#xe947;" glyph-name="widget_align_top" d="M339.2 556.8h89.6c17.673 0 32-14.327 32-32v-448c0-17.673-14.327-32-32-32h-89.6c-17.673 0-32 14.327-32 32v448c0 17.673 14.327 32 32 32v0zM595.2 556.8h89.6c17.673 0 32-14.327 32-32v-243.2c0-17.673-14.327-32-32-32h-89.6c-17.673 0-32 14.327-32 32v243.2c0 17.673 14.327 32 32 32zM204.8 659.2h614.4v-51.2h-614.4v51.2z" />
<glyph unicode="&#xe948;" glyph-name="widget_align_v_center" d="M204.8 403.2h614.4v-51.2h-614.4v51.2zM339.2 659.2h89.6c17.673 0 32-14.327 32-32v-499.2c0-17.673-14.327-32-32-32h-89.6c-17.673 0-32 14.327-32 32v499.2c0 17.673 14.327 32 32 32v0zM595.2 556.8h89.6c17.673 0 32-14.327 32-32v-294.4c0-17.673-14.327-32-32-32h-89.6c-17.673 0-32 14.327-32 32v294.4c0 17.673 14.327 32 32 32z" />
<glyph unicode="&#xe949;" glyph-name="evenly_distribute_h" d="M441.6 608h140.8c17.673 0 32-14.327 32-32v-448c0-17.673-14.327-32-32-32h-140.8c-17.673 0-32 14.327-32 32v448c0 17.673 14.327 32 32 32zM204.8 659.2h51.2v-614.4h-51.2v614.4zM768 659.2h51.2v-614.4h-51.2v614.4z" />
<glyph unicode="&#xe94a;" glyph-name="evenly_distribute_v" d="M288 454.4h448c17.673 0 32-14.327 32-32v-140.8c0-17.673-14.327-32-32-32h-448c-17.673 0-32 14.327-32 32v140.8c0 17.673 14.327 32 32 32zM204.8 659.2h614.4v-51.2h-614.4v51.2zM204.8 96h614.4v-51.2h-614.4v51.2z" />
<glyph unicode="&#xe94b;" glyph-name="minus_fc" d="M512-160c-282.77 0-512 229.23-512 512s229.23 512 512 512c282.77 0 512-229.23 512-512s-229.23-512-512-512zM312.889 295.111h398.222c15.709 0 28.444 12.735 28.444 28.444v56.889c0 15.709-12.735 28.444-28.444 28.444h-398.222c-15.709 0-28.444-12.735-28.444-28.444v-56.889c0-15.709 12.735-28.444 28.444-28.444z" />
<glyph unicode="&#xe94c;" glyph-name="minus" d="M170.667 266.667h682.667c47.128 0 85.333 38.205 85.333 85.333v0 0c0 47.128-38.205 85.333-85.333 85.333h-682.667c-47.128 0-85.333-38.205-85.333-85.333v0 0c0-47.128 38.205-85.333 85.333-85.333z" />
<glyph unicode="&#xe94d;" glyph-name="move" d="M16.23 459.606l471.962 337.491c3.97 3.131 9.98 4.091 15.211 2.345 5.231-1.687 8.597-5.656 8.597-10.108v-213.333h426.667v-128h-918.714c-3.535 0-6.4 2.865-6.4 6.4 0 2.066 0.997 4.004 2.677 5.206zM1007.77 265.727l-471.962-337.491c-3.97-3.131-9.98-4.091-15.211-2.345-5.231 1.687-8.597 5.656-8.597 10.108v213.333h-426.667v128h918.714c3.535 0 6.4-2.865 6.4-6.4 0-2.066-0.997-4.004-2.677-5.206z" />
<glyph unicode="&#xe94e;" glyph-name="null" d="M768 710.4l-614.4-614.4v-102.4h102.4l614.4 614.4v102.4h-102.4z" />
<glyph unicode="&#xe94f;" glyph-name="play" d="M512-160c-282.77 0-512 229.23-512 512s229.23 512 512 512c282.77 0 512-229.23 512-512s-229.23-512-512-512zM512-57.6c226.216 0 409.6 183.384 409.6 409.6s-183.384 409.6-409.6 409.6c-226.216 0-409.6-183.384-409.6-409.6s183.384-409.6 409.6-409.6zM435.2 147.2c-13.614 0-25.338 5.634-33.846 16.275s-13.236 25.874-13.236 42.775v291.498c0 16.901 4.727 32.134 13.236 42.775s20.232 16.275 33.846 16.275c10.211 0 20.799-3.339 31.199-9.807l221.282-146.166c18.53-11.685 29.119-29.421 29.119-48.826 0-19.614-10.589-37.142-29.686-49.244l-219.769-145.123c-11.345-7.094-21.745-10.433-32.145-10.433z" />
<glyph unicode="&#xe950;" glyph-name="plus_c" d="M448 416h-160c-17.673 0-32-14.327-32-32v-64c0-17.673 14.327-32 32-32h160v-160c0-17.673 14.327-32 32-32h64c17.673 0 32 14.327 32 32v160h160c17.673 0 32 14.327 32 32v64c0 17.673-14.327 32-32 32h-160v160c0 17.673-14.327 32-32 32h-64c-17.673 0-32-14.327-32-32v0-160zM512-160c-282.77 0-512 229.23-512 512s229.23 512 512 512c282.77 0 512-229.23 512-512s-229.23-512-512-512zM512-96c247.424 0 448 200.576 448 448s-200.576 448-448 448c-247.424 0-448-200.576-448-448s200.576-448 448-448z" />
<glyph unicode="&#xe951;" glyph-name="plus_cb" d="M448 416h-160c-17.673 0-32-14.327-32-32v-64c0-17.673 14.327-32 32-32h160v-160c0-17.673 14.327-32 32-32h64c17.673 0 32 14.327 32 32v160h160c17.673 0 32 14.327 32 32v64c0 17.673-14.327 32-32 32h-160v160c0 17.673-14.327 32-32 32h-64c-17.673 0-32-14.327-32-32v0-160zM512-160c-282.77 0-512 229.23-512 512s229.23 512 512 512c282.77 0 512-229.23 512-512s-229.23-512-512-512zM512-32c212.077 0 384 171.923 384 384s-171.923 384-384 384c-212.077 0-384-171.923-384-384s171.923-384 384-384z" />
<glyph unicode="&#xe952;" glyph-name="plus_fc" d="M455.111 408.889h-142.222c-15.709 0-28.444-12.735-28.444-28.444v-56.889c0-15.709 12.735-28.444 28.444-28.444h142.222v-142.222c0-15.709 12.735-28.444 28.444-28.444h56.889c15.709 0 28.444 12.735 28.444 28.444v142.222h142.222c15.709 0 28.444 12.735 28.444 28.444v56.889c0 15.709-12.735 28.444-28.444 28.444h-142.222v142.222c0 15.709-12.735 28.444-28.444 28.444h-56.889c-15.709 0-28.444-12.735-28.444-28.444v-142.222zM512-160c-282.77 0-512 229.23-512 512s229.23 512 512 512c282.77 0 512-229.23 512-512s-229.23-512-512-512z" />
<glyph unicode="&#xe953;" glyph-name="plus" d="M426.72 437.333h-305.831c-19.637 0-35.556-15.919-35.556-35.556v-99.556c0-19.637 15.919-35.556 35.556-35.556h305.831v-305.831c0-19.637 15.919-35.556 35.556-35.556h99.556c19.637 0 35.556 15.919 35.556 35.556v305.831h305.831c19.637 0 35.556 15.919 35.556 35.556v99.556c0 19.637-15.919 35.556-35.556 35.556h-305.831v305.831c0 19.637-15.919 35.556-35.556 35.556h-99.556c-19.637 0-35.556-15.919-35.556-35.556v-305.831z" />
<glyph unicode="&#xe954;" glyph-name="ruler" d="M73.143 726.857v-749.714c0-35.346 28.654-64 64-64h338.286v475.429h475.429v338.286c0 35.346-28.654 64-64 64h-749.714c-35.346 0-64-28.654-64-64zM877.714 571.429h-73.143l-0.465-73.143h-72.678v109.714h-73.143v-109.714h-73.143v73.143h-73.143v-73.143h-73.143v109.714h-73.143v-109.714h-109.714v-73.143h109.714v-73.143h-73.143v-73.143h73.143v-73.143h-109.714v-73.143h109.714v-73.143h-73.143v-73.143h-114.286c-17.673 0-32 14.327-32 32v668.571c0 17.673 14.327 32 32 32h667.429c17.673 0 32-14.327 32-32v-115.429z" />
<glyph unicode="&#xe955;" glyph-name="setting" d="M469.54 96h-378.34c-22.091 0-40-17.909-40-40v-22.4c0-22.091 17.909-40 40-40h378.34c-5.66 16.014-8.74 33.247-8.74 51.2s3.080 35.186 8.74 51.2zM759.26 96h173.54c22.091 0 40-17.909 40-40v-22.4c0-22.091-17.909-40-40-40h-173.54c5.66 16.014 8.74 33.247 8.74 51.2s-3.080 35.186-8.74 51.2zM213.54 403.2h-122.34c-22.091 0-40-17.909-40-40v-22.4c0-22.091 17.909-40 40-40v0h122.34c-5.66 16.014-8.74 33.247-8.74 51.2s3.080 35.186 8.74 51.2zM503.26 403.2h429.54c22.091 0 40-17.909 40-40v-22.4c0-22.091-17.909-40-40-40h-429.54c5.66 16.014 8.74 33.247 8.74 51.2s-3.080 35.186-8.74 51.2zM520.74 710.4h-421.54c-26.51 0-48-21.49-48-48v0-6.4c0-26.51 21.49-48 48-48v0h421.54c-5.66 16.014-8.74 33.247-8.74 51.2s3.080 35.186 8.74 51.2zM810.46 710.4h114.34c26.51 0 48-21.49 48-48v-6.4c0-26.51-21.49-48-48-48h-114.34c5.66 16.014 8.74 33.247 8.74 51.2s-3.080 35.186-8.74 51.2zM665.6 556.8c-56.554 0-102.4 45.846-102.4 102.4s45.846 102.4 102.4 102.4c56.554 0 102.4-45.846 102.4-102.4s-45.846-102.4-102.4-102.4zM358.4 249.6c-56.554 0-102.4 45.846-102.4 102.4s45.846 102.4 102.4 102.4c56.554 0 102.4-45.846 102.4-102.4s-45.846-102.4-102.4-102.4zM614.4-57.6c-56.554 0-102.4 45.846-102.4 102.4s45.846 102.4 102.4 102.4c56.554 0 102.4-45.846 102.4-102.4s-45.846-102.4-102.4-102.4z" />
<glyph unicode="&#xe956;" glyph-name="slice" d="M185.6 44.255h665.6c14.138 0 25.6-11.339 25.6-25.327s-11.462-25.327-25.6-25.327h-665.6c-14.138 0-25.6 11.339-25.6 25.327s11.462 25.327 25.6 25.327zM175.118 201.299l269.427 269.427c0 0 83.822 83.822 251.466 251.466 19.758 19.758 52.215 19.632 72.128-0.28s20.038-52.37 0.28-72.128l-208.45-208.45c-3.917-3.917-3.917-10.267 0-14.184l103.923-103.922c6.854-6.854 6.854-17.968 0-24.822-0.078-0.078-0.157-0.156-0.237-0.232-5.997-5.774-10.857-10.366-14.581-13.776-132.631-121.441-286.906-162.033-462.826-121.776v0.001c-12.38 2.833-20.119 15.165-17.286 27.545 0.965 4.215 3.098 8.073 6.156 11.131v0z" />
<glyph unicode="&#xe957;" glyph-name="smiley" d="M515.2-9.6c197.939 0 358.4 160.461 358.4 358.4s-160.461 358.4-358.4 358.4c-197.939 0-358.4-160.461-358.4-358.4s160.461-358.4 358.4-358.4zM515.2-86.4c-240.354 0-435.2 194.846-435.2 435.2s194.846 435.2 435.2 435.2c240.354 0 435.2-194.846 435.2-435.2s-194.846-435.2-435.2-435.2zM284.8 254.126l48.038 17.874c28.070-68.012 103.131-104.611 180.583-104.611 77.524 0 156.136 36.699 184.134 104.597l48.044-17.86c-35.675-86.513-133.234-135.726-232.178-135.726-98.87 0-192.872 49.109-228.622 135.726zM336 374.4c-28.277 0-51.2 22.923-51.2 51.2s22.923 51.2 51.2 51.2c28.277 0 51.2-22.923 51.2-51.2s-22.923-51.2-51.2-51.2zM694.4 374.4c-28.277 0-51.2 22.923-51.2 51.2s22.923 51.2 51.2 51.2c28.277 0 51.2-22.923 51.2-51.2s-22.923-51.2-51.2-51.2z" />
<glyph unicode="&#xe958;" glyph-name="state" d="M512-108.8c-254.493 0-460.8 206.307-460.8 460.8s206.307 460.8 460.8 460.8c254.493 0 460.8-206.307 460.8-460.8s-206.307-460.8-460.8-460.8zM512-6.4c197.939 0 358.4 160.461 358.4 358.4s-160.461 358.4-358.4 358.4c-197.939 0-358.4-160.461-358.4-358.4s160.461-358.4 358.4-358.4zM512 147.2c-113.108 0-204.8 91.692-204.8 204.8s91.692 204.8 204.8 204.8c113.108 0 204.8-91.692 204.8-204.8s-91.692-204.8-204.8-204.8zM512 249.6c56.554 0 102.4 45.846 102.4 102.4s-45.846 102.4-102.4 102.4c-56.554 0-102.4-45.846-102.4-102.4s45.846-102.4 102.4-102.4z" />
<glyph unicode="&#xe959;" glyph-name="thunder" d="M386.328-108.8c-7.631 0-15.261 1.222-22.892 4.887-20.348 9.773-31.794 31.764-26.707 53.754l68.675 305.419-165.328 56.197c-15.261 4.887-27.979 17.103-33.066 32.985s-1.272 31.764 10.174 43.98l354.818 406.818c15.261 17.103 39.424 21.99 59.772 13.438s33.066-30.542 29.25-52.532l-53.414-317.636 170.415-34.207c17.805-3.665 31.794-15.882 38.153-31.764 6.359-17.103 2.544-34.207-10.174-47.645l-381.525-416.591c-8.902-10.995-24.163-17.103-38.153-17.103z" />
<glyph unicode="&#xe95a;" glyph-name="trash" d="M170.667 576h682.667v-650.667c0-17.673-14.327-32-32-32h-618.667c-17.673 0-32 14.327-32 32v650.667zM357.333 405.333v0c-8.837 0-16-7.163-16-16v-309.333c0-8.837 7.163-16 16-16h53.333c8.837 0 16 7.163 16 16v309.333c0 8.837-7.163 16-16 16h-53.333zM613.333 405.333c-8.837 0-16-7.163-16-16v-309.333c0-8.837 7.163-16 16-16h53.333c8.837 0 16 7.163 16 16v309.333c0 8.837-7.163 16-16 16h-53.333zM426.667 789.333c0 23.564 19.103 42.667 42.667 42.667h85.333c23.564 0 42.667-19.103 42.667-42.667s19.103-42.667 42.667-42.667h256c23.564 0 42.667-19.103 42.667-42.667v0c0-23.564-19.103-42.667-42.667-42.667h-768c-23.564 0-42.667 19.103-42.667 42.667s19.103 42.667 42.667 42.667h256c23.564 0 42.667 19.103 42.667 42.667z" />
<glyph unicode="&#xe95b;" glyph-name="tube" d="M805.411 826.523l-172.090-172.101-98.712 98.721c-12.496 12.497-32.758 12.498-45.255 0.001 0 0-0.001-0.001-0.001-0.001l-90.483-90.494c-12.496-12.497-12.496-32.757 0-45.253l83.8-83.808-472.111-472.141c-7.748-7.726-11.543-18.569-10.304-29.441l-0.256-160.004c0-17.674 14.326-32.001 31.999-32.001h164.026c9.557-0.011 18.725 3.79 25.471 10.56l472.111 472.141 83.8-83.808c12.496-12.497 32.758-12.498 45.255-0.001 0 0 0.001 0.001 0.001 0.001l90.483 90.494c12.496 12.497 12.496 32.757 0 45.253l-98.712 98.721 172.090 172.101c49.967 49.985 49.967 131.012 0 180.997-50.11 50.034-131.131 50.034-181.114 0.064zM335.151 59.43l-188.866 37.919 399.47 400.938 112.53-113.075-323.134-325.782z" />
<glyph unicode="&#xe95c;" glyph-name="widget_align_bottom" d="M339.2 659.2h89.6c17.673 0 32-14.327 32-32v-448c0-17.673-14.327-32-32-32h-89.6c-17.673 0-32 14.327-32 32v448c0 17.673 14.327 32 32 32v0zM595.2 454.4h89.6c17.673 0 32-14.327 32-32v-243.2c0-17.673-14.327-32-32-32h-89.6c-17.673 0-32 14.327-32 32v243.2c0 17.673 14.327 32 32 32zM204.8 96h614.4v-51.2h-614.4v51.2z" />
<glyph unicode="&#xe95d;" glyph-name="widget_align_center" d="M512 659.2h51.2v-614.4h-51.2v614.4zM288 300.8h499.2c17.673 0 32-14.327 32-32v-89.6c0-17.673-14.327-32-32-32h-499.2c-17.673 0-32 14.327-32 32v89.6c0 17.673 14.327 32 32 32v0zM390.4 556.8h294.4c17.673 0 32-14.327 32-32v-89.6c0-17.673-14.327-32-32-32h-294.4c-17.673 0-32 14.327-32 32v89.6c0 17.673 14.327 32 32 32z" />
<glyph unicode="&#xe95e;" glyph-name="visibility" d="M204.801 366.629c-0.488 53.602 127.499 208.457 307.198 208.457s307.165-156.944 307.198-208.457c0.033-51.513-123.037-208.457-307.198-208.457s-306.71 154.855-307.198 208.457zM512 242.286c72.712 0 131.657 58.945 131.657 131.657s-58.945 131.657-131.657 131.657c-72.712 0-131.657-58.945-131.657-131.657s58.945-131.657 131.657-131.657zM566.857 373.943c0-30.297-24.56-54.857-54.857-54.857s-54.857 24.56-54.857 54.857c0 30.297 24.56 54.857 54.857 54.857s54.857-24.56 54.857-54.857z" />
<glyph unicode="&#xe95f;" glyph-name="combo" d="M742.056 442.646v193.009c-0.002 6.277-3.481 11.758-8.653 14.696l-213.028 119.524c-2.507 1.435-5.52 2.282-8.735 2.282s-6.228-0.847-8.818-2.327l-212.83-119.469c-5.248-2.978-8.725-8.45-8.735-14.718v-192.981l-196.065-110.058c-5.248-2.978-8.725-8.45-8.735-14.718v-239.014c0-6.088 3.337-11.663 8.735-14.739l212.914-119.513c2.517-1.397 5.528-2.22 8.735-2.22s6.219 0.824 8.824 2.266l195.99 110.001 196.050-110.047c2.517-1.397 5.528-2.22 8.735-2.22s6.219 0.824 8.824 2.266l212.857 119.468c5.255 2.982 8.734 8.463 8.735 14.741v239.024c-0.002 6.277-3.481 11.758-8.653 14.696l-196.147 110.053zM511.643 340.614l-153.587 87.765v175.556l153.587 87.765 153.613-87.765v-175.53l-153.613-87.791zM306.843 22.857l-153.587 87.765v175.556l153.587 87.765 153.613-87.765v-175.53l-153.613-87.791zM716.443 22.857l-153.587 87.765v175.556l153.587 87.765 153.613-87.765v-175.53l-153.613-87.791zM384.179 568.502c0-5.581 3.018-10.453 7.502-13.049l105.211-60.725v-102.028c0-8.377 6.734-15.101 15.108-15.101 8.394-0.001 15.109 6.76 15.109 15.1 0 0 0 33.953 0 101.858l105.506 60.914c4.55 2.644 7.564 7.517 7.564 13.098 0 2.783-0.749 5.391-2.056 7.628-2.65 4.48-7.509 7.481-13.063 7.481-2.78 0-5.384-0.751-7.625-2.064l-105.264-60.732-105.309 60.771c-2.161 1.257-4.753 2-7.518 2-5.572 0-10.445-3.015-13.097-7.514-1.315-2.24-2.068-4.85-2.068-7.639zM179.379 261.302c0-5.581 3.018-10.453 7.502-13.049l105.211-60.725v-102.028c0-8.377 6.734-15.101 15.108-15.101 8.394-0.001 15.109 6.76 15.109 15.1 0 0 0 33.953 0 101.858l105.506 60.914c4.55 2.644 7.564 7.517 7.564 13.098 0 2.783-0.749 5.391-2.056 7.628-2.65 4.48-7.509 7.481-13.063 7.481-2.78 0-5.384-0.751-7.625-2.064l-105.264-60.732-105.309 60.771c-2.161 1.257-4.753 2-7.518 2-5.572 0-10.445-3.015-13.097-7.514-1.315-2.24-2.068-4.85-2.068-7.639zM588.979 261.302c0-5.581 3.018-10.453 7.502-13.049l105.211-60.725v-102.028c0-8.377 6.734-15.101 15.108-15.101 8.394-0.001 15.109 6.76 15.109 15.1 0 0 0 33.953 0 101.858l105.506 60.914c4.55 2.644 7.564 7.517 7.564 13.098 0 2.783-0.749 5.391-2.056 7.628-2.65 4.48-7.509 7.481-13.063 7.481-2.78 0-5.384-0.751-7.625-2.064l-105.264-60.732-105.309 60.771c-2.161 1.257-4.753 2-7.518 2-5.572 0-10.445-3.015-13.097-7.514-1.315-2.24-2.068-4.85-2.068-7.639z" />
<glyph unicode="&#xe960;" glyph-name="z_back" d="M240 364.8h172.8v76.8h-172.8c-17.673 0-32-14.327-32-32v-12.8c0-17.673 14.327-32 32-32zM617.6 364.8h172.8c17.673 0 32 14.327 32 32v12.8c0 17.673-14.327 32-32 32h-172.8v-76.8zM240 57.6h550.4c17.673 0 32 14.327 32 32v12.8c0 17.673-14.327 32-32 32h-550.4c-17.673 0-32-14.327-32-32v-12.8c0-17.673 14.327-32 32-32zM643.2 288l-128-153.6-128 153.6h76.8v281.6h-204.8c-28.277 0-51.2 22.923-51.2 51.2v0 0c0 28.277 22.923 51.2 51.2 51.2h512c28.277 0 51.2-22.923 51.2-51.2v0 0c0-28.277-22.923-51.2-51.2-51.2h-204.8v-281.6h76.8z" />
<glyph unicode="&#xe961;" glyph-name="z_backward" d="M240 364.8h172.8v76.8h-172.8c-17.673 0-32-14.327-32-32v-12.8c0-17.673 14.327-32 32-32zM617.6 364.8h172.8c17.673 0 32 14.327 32 32v12.8c0 17.673-14.327 32-32 32h-172.8v-76.8zM668.8 262.4l-153.6-204.8-153.6 204.8h102.4v307.2h-204.8c-28.277 0-51.2 22.923-51.2 51.2v0 0c0 28.277 22.923 51.2 51.2 51.2h512c28.277 0 51.2-22.923 51.2-51.2v0 0c0-28.277-22.923-51.2-51.2-51.2h-204.8v-307.2h102.4z" />
<glyph unicode="&#xe962;" glyph-name="z_forward" d="M243.2 364.8h172.8v-76.8h-172.8c-17.673 0-32 14.327-32 32v12.8c0 17.673 14.327 32 32 32zM620.8 364.8h172.8c17.673 0 32-14.327 32-32v-12.8c0-17.673-14.327-32-32-32h-172.8v76.8zM672 467.2l-153.6 204.8-153.6-204.8h102.4v-307.2h-204.8c-28.277 0-51.2-22.923-51.2-51.2v0 0c0-28.277 22.923-51.2 51.2-51.2h512c28.277 0 51.2 22.923 51.2 51.2v0 0c0 28.277-22.923 51.2-51.2 51.2h-204.8v307.2h102.4z" />
<glyph unicode="&#xe963;" glyph-name="z_front" d="M240 364.8h172.8v-76.8h-172.8c-17.673 0-32 14.327-32 32v12.8c0 17.673 14.327 32 32 32zM617.6 364.8h172.8c17.673 0 32-14.327 32-32v-12.8c0-17.673-14.327-32-32-32h-172.8v76.8zM240 672h550.4c17.673 0 32-14.327 32-32v-12.8c0-17.673-14.327-32-32-32h-550.4c-17.673 0-32 14.327-32 32v12.8c0 17.673 14.327 32 32 32zM643.2 441.6l-128 153.6-128-153.6h76.8v-281.6h-204.8c-28.277 0-51.2-22.923-51.2-51.2v0 0c0-28.277 22.923-51.2 51.2-51.2h512c28.277 0 51.2 22.923 51.2 51.2v0 0c0 28.277-22.923 51.2-51.2 51.2h-204.8v281.6h76.8z" />
<glyph unicode="" glyph-name="z_front" d="M240 364.8h172.8v-76.8h-172.8c-17.673 0-32 14.327-32 32v12.8c0 17.673 14.327 32 32 32zM617.6 364.8h172.8c17.673 0 32-14.327 32-32v-12.8c0-17.673-14.327-32-32-32h-172.8v76.8zM240 672h550.4c17.673 0 32-14.327 32-32v-12.8c0-17.673-14.327-32-32-32h-550.4c-17.673 0-32 14.327-32 32v12.8c0 17.673 14.327 32 32 32zM643.2 441.6l-128 153.6-128-153.6h76.8v-281.6h-204.8c-28.277 0-51.2-22.923-51.2-51.2v0 0c0-28.277 22.923-51.2 51.2-51.2h512c28.277 0 51.2 22.923 51.2 51.2v0 0c0 28.277-22.923 51.2-51.2 51.2h-204.8v281.6h76.8z" />
<glyph unicode="z_front" glyph-name="z_front" d="M240 364.8h172.8v-76.8h-172.8c-17.673 0-32 14.327-32 32v12.8c0 17.673 14.327 32 32 32zM617.6 364.8h172.8c17.673 0 32-14.327 32-32v-12.8c0-17.673-14.327-32-32-32h-172.8v76.8zM240 672h550.4c17.673 0 32-14.327 32-32v-12.8c0-17.673-14.327-32-32-32h-550.4c-17.673 0-32 14.327-32 32v12.8c0 17.673 14.327 32 32 32zM643.2 441.6l-128 153.6-128-153.6h76.8v-281.6h-204.8c-28.277 0-51.2-22.923-51.2-51.2v0 0c0-28.277 22.923-51.2 51.2-51.2h512c28.277 0 51.2 22.923 51.2 51.2v0 0c0 28.277-22.923 51.2-51.2 51.2h-204.8v281.6h76.8z" />
<glyph unicode="z_forward" glyph-name="z_forward" d="M243.2 364.8h172.8v-76.8h-172.8c-17.673 0-32 14.327-32 32v12.8c0 17.673 14.327 32 32 32zM620.8 364.8h172.8c17.673 0 32-14.327 32-32v-12.8c0-17.673-14.327-32-32-32h-172.8v76.8zM672 467.2l-153.6 204.8-153.6-204.8h102.4v-307.2h-204.8c-28.277 0-51.2-22.923-51.2-51.2v0 0c0-28.277 22.923-51.2 51.2-51.2h512c28.277 0 51.2 22.923 51.2 51.2v0 0c0 28.277-22.923 51.2-51.2 51.2h-204.8v307.2h102.4z" />
<glyph unicode="z_backward" glyph-name="z_backward" d="M240 364.8h172.8v76.8h-172.8c-17.673 0-32-14.327-32-32v-12.8c0-17.673 14.327-32 32-32zM617.6 364.8h172.8c17.673 0 32 14.327 32 32v12.8c0 17.673-14.327 32-32 32h-172.8v-76.8zM668.8 262.4l-153.6-204.8-153.6 204.8h102.4v307.2h-204.8c-28.277 0-51.2 22.923-51.2 51.2v0 0c0 28.277 22.923 51.2 51.2 51.2h512c28.277 0 51.2-22.923 51.2-51.2v0 0c0-28.277-22.923-51.2-51.2-51.2h-204.8v-307.2h102.4z" />
<glyph unicode="z_back" glyph-name="z_back" d="M240 364.8h172.8v76.8h-172.8c-17.673 0-32-14.327-32-32v-12.8c0-17.673 14.327-32 32-32zM617.6 364.8h172.8c17.673 0 32 14.327 32 32v12.8c0 17.673-14.327 32-32 32h-172.8v-76.8zM240 57.6h550.4c17.673 0 32 14.327 32 32v12.8c0 17.673-14.327 32-32 32h-550.4c-17.673 0-32-14.327-32-32v-12.8c0-17.673 14.327-32 32-32zM643.2 288l-128-153.6-128 153.6h76.8v281.6h-204.8c-28.277 0-51.2 22.923-51.2 51.2v0 0c0 28.277 22.923 51.2 51.2 51.2h512c28.277 0 51.2-22.923 51.2-51.2v0 0c0-28.277-22.923-51.2-51.2-51.2h-204.8v-281.6h76.8z" />
<glyph unicode="widget_align_v_center__object" glyph-name="widget_align_v_center__object" d="M339.2 659.2h89.6c17.673 0 32-14.327 32-32v-499.2c0-17.673-14.327-32-32-32h-89.6c-17.673 0-32 14.327-32 32v499.2c0 17.673 14.327 32 32 32v0zM595.2 556.8h89.6c17.673 0 32-14.327 32-32v-294.4c0-17.673-14.327-32-32-32h-89.6c-17.673 0-32 14.327-32 32v294.4c0 17.673 14.327 32 32 32z" />
<glyph unicode="widget_align_v_center__indicator" glyph-name="widget_align_v_center__indicator" d="M204.8 403.2h614.4v-51.2h-614.4v51.2z" />
<glyph unicode="widget_align_v_center" glyph-name="widget_align_v_center" d="M204.8 403.2h614.4v-51.2h-614.4v51.2zM339.2 659.2h89.6c17.673 0 32-14.327 32-32v-499.2c0-17.673-14.327-32-32-32h-89.6c-17.673 0-32 14.327-32 32v499.2c0 17.673 14.327 32 32 32v0zM595.2 556.8h89.6c17.673 0 32-14.327 32-32v-294.4c0-17.673-14.327-32-32-32h-89.6c-17.673 0-32 14.327-32 32v294.4c0 17.673 14.327 32 32 32z" />
<glyph unicode="widget_align_top__object" glyph-name="widget_align_top__object" d="M339.2 556.8h89.6c17.673 0 32-14.327 32-32v-448c0-17.673-14.327-32-32-32h-89.6c-17.673 0-32 14.327-32 32v448c0 17.673 14.327 32 32 32v0zM595.2 556.8h89.6c17.673 0 32-14.327 32-32v-243.2c0-17.673-14.327-32-32-32h-89.6c-17.673 0-32 14.327-32 32v243.2c0 17.673 14.327 32 32 32z" />
<glyph unicode="widget_align_top__indicator" glyph-name="widget_align_top__indicator" d="M204.8 659.2h614.4v-51.2h-614.4v51.2z" />
<glyph unicode="widget_align_top" glyph-name="widget_align_top" d="M339.2 556.8h89.6c17.673 0 32-14.327 32-32v-448c0-17.673-14.327-32-32-32h-89.6c-17.673 0-32 14.327-32 32v448c0 17.673 14.327 32 32 32v0zM595.2 556.8h89.6c17.673 0 32-14.327 32-32v-243.2c0-17.673-14.327-32-32-32h-89.6c-17.673 0-32 14.327-32 32v243.2c0 17.673 14.327 32 32 32zM204.8 659.2h614.4v-51.2h-614.4v51.2z" />
<glyph unicode="widget_align_right__object" glyph-name="widget_align_right__object" d="M236.8 300.8h448c17.673 0 32-14.327 32-32v-89.6c0-17.673-14.327-32-32-32h-448c-17.673 0-32 14.327-32 32v89.6c0 17.673 14.327 32 32 32v0zM441.6 556.8h243.2c17.673 0 32-14.327 32-32v-89.6c0-17.673-14.327-32-32-32h-243.2c-17.673 0-32 14.327-32 32v89.6c0 17.673 14.327 32 32 32z" />
<glyph unicode="widget_align_right__indicator" glyph-name="widget_align_right__indicator" d="M768 659.2h51.2v-614.4h-51.2v614.4z" />
<glyph unicode="widget_align_right" glyph-name="widget_align_right" d="M768 659.2h51.2v-614.4h-51.2v614.4zM236.8 300.8h448c17.673 0 32-14.327 32-32v-89.6c0-17.673-14.327-32-32-32h-448c-17.673 0-32 14.327-32 32v89.6c0 17.673 14.327 32 32 32v0zM441.6 556.8h243.2c17.673 0 32-14.327 32-32v-89.6c0-17.673-14.327-32-32-32h-243.2c-17.673 0-32 14.327-32 32v89.6c0 17.673 14.327 32 32 32z" />
<glyph unicode="widget_align_left__object" glyph-name="widget_align_left__object" d="M339.2 300.8h448c17.673 0 32-14.327 32-32v-89.6c0-17.673-14.327-32-32-32h-448c-17.673 0-32 14.327-32 32v89.6c0 17.673 14.327 32 32 32v0zM339.2 556.8h243.2c17.673 0 32-14.327 32-32v-89.6c0-17.673-14.327-32-32-32h-243.2c-17.673 0-32 14.327-32 32v89.6c0 17.673 14.327 32 32 32v0z" />
<glyph unicode="widget_align_left__indicator" glyph-name="widget_align_left__indicator" d="M204.8 659.2h51.2v-614.4h-51.2v614.4z" />
<glyph unicode="widget_align_left" glyph-name="widget_align_left" d="M339.2 300.8h448c17.673 0 32-14.327 32-32v-89.6c0-17.673-14.327-32-32-32h-448c-17.673 0-32 14.327-32 32v89.6c0 17.673 14.327 32 32 32v0zM339.2 556.8h243.2c17.673 0 32-14.327 32-32v-89.6c0-17.673-14.327-32-32-32h-243.2c-17.673 0-32 14.327-32 32v89.6c0 17.673 14.327 32 32 32v0zM204.8 659.2h51.2v-614.4h-51.2v614.4z" />
<glyph unicode="widget_align_center__object" glyph-name="widget_align_center__object" d="M288 300.8h499.2c17.673 0 32-14.327 32-32v-89.6c0-17.673-14.327-32-32-32h-499.2c-17.673 0-32 14.327-32 32v89.6c0 17.673 14.327 32 32 32v0zM390.4 556.8h294.4c17.673 0 32-14.327 32-32v-89.6c0-17.673-14.327-32-32-32h-294.4c-17.673 0-32 14.327-32 32v89.6c0 17.673 14.327 32 32 32z" />
<glyph unicode="widget_align_center__indicator" glyph-name="widget_align_center__indicator" d="M512 659.2h51.2v-614.4h-51.2v614.4z" />
<glyph unicode="widget_align_center" glyph-name="widget_align_center" d="M512 659.2h51.2v-614.4h-51.2v614.4zM288 300.8h499.2c17.673 0 32-14.327 32-32v-89.6c0-17.673-14.327-32-32-32h-499.2c-17.673 0-32 14.327-32 32v89.6c0 17.673 14.327 32 32 32v0zM390.4 556.8h294.4c17.673 0 32-14.327 32-32v-89.6c0-17.673-14.327-32-32-32h-294.4c-17.673 0-32 14.327-32 32v89.6c0 17.673 14.327 32 32 32z" />
<glyph unicode="widget_align_bottom__object" glyph-name="widget_align_bottom__object" d="M339.2 659.2h89.6c17.673 0 32-14.327 32-32v-448c0-17.673-14.327-32-32-32h-89.6c-17.673 0-32 14.327-32 32v448c0 17.673 14.327 32 32 32v0zM595.2 454.4h89.6c17.673 0 32-14.327 32-32v-243.2c0-17.673-14.327-32-32-32h-89.6c-17.673 0-32 14.327-32 32v243.2c0 17.673 14.327 32 32 32z" />
<glyph unicode="widget_align_bottom__indicator" glyph-name="widget_align_bottom__indicator" d="M204.8 96h614.4v-51.2h-614.4v51.2z" />
<glyph unicode="widget_align_bottom" glyph-name="widget_align_bottom" d="M339.2 659.2h89.6c17.673 0 32-14.327 32-32v-448c0-17.673-14.327-32-32-32h-89.6c-17.673 0-32 14.327-32 32v448c0 17.673 14.327 32 32 32v0zM595.2 454.4h89.6c17.673 0 32-14.327 32-32v-243.2c0-17.673-14.327-32-32-32h-89.6c-17.673 0-32 14.327-32 32v243.2c0 17.673 14.327 32 32 32zM204.8 96h614.4v-51.2h-614.4v51.2z" />
<glyph unicode="visibility" glyph-name="visibility" d="M204.801 366.629c-0.488 53.602 127.499 208.457 307.198 208.457s307.165-156.944 307.198-208.457c0.033-51.513-123.037-208.457-307.198-208.457s-306.71 154.855-307.198 208.457zM512 242.286c72.712 0 131.657 58.945 131.657 131.657s-58.945 131.657-131.657 131.657c-72.712 0-131.657-58.945-131.657-131.657s58.945-131.657 131.657-131.657zM566.857 373.943c0-30.297-24.56-54.857-54.857-54.857s-54.857 24.56-54.857 54.857c0 30.297 24.56 54.857 54.857 54.857s54.857-24.56 54.857-54.857z" />
<glyph unicode="underline" glyph-name="underline" d="M256 44.8h512v-51.2h-512v51.2zM716.8 339.375c0-64.059-17.066-104.738-51.2-136.767s-89.775-55.408-152.899-55.408c-64.526 0-118.064 20.573-154.301 51.2s-51.2 74.111-51.2 140.975v319.825h66.63v-319.825c0-44.888 11.923-66.63 35.77-89.775s58.213-46.992 103.101-46.992c42.55 0 79.488 23.846 101.699 46.992s35.77 44.887 35.77 89.775v319.825h66.63v-319.825z" />
<glyph unicode="tube" glyph-name="tube" d="M805.411 826.523l-172.090-172.101-98.712 98.721c-12.496 12.497-32.758 12.498-45.255 0.001 0 0-0.001-0.001-0.001-0.001l-90.483-90.494c-12.496-12.497-12.496-32.757 0-45.253l83.8-83.808-472.111-472.141c-7.748-7.726-11.543-18.569-10.304-29.441l-0.256-160.004c0-17.674 14.326-32.001 31.999-32.001h164.026c9.557-0.011 18.725 3.79 25.471 10.56l472.111 472.141 83.8-83.808c12.496-12.497 32.758-12.498 45.255-0.001 0 0 0.001 0.001 0.001 0.001l90.483 90.494c12.496 12.497 12.496 32.757 0 45.253l-98.712 98.721 172.090 172.101c49.967 49.985 49.967 131.012 0 180.997-50.11 50.034-131.131 50.034-181.114 0.064zM335.151 59.43l-188.866 37.919 399.47 400.938 112.53-113.075-323.134-325.782z" />
<glyph unicode="trash" glyph-name="trash" d="M170.667 576h682.667v-650.667c0-17.673-14.327-32-32-32h-618.667c-17.673 0-32 14.327-32 32v650.667zM357.333 405.333v0c-8.837 0-16-7.163-16-16v-309.333c0-8.837 7.163-16 16-16h53.333c8.837 0 16 7.163 16 16v309.333c0 8.837-7.163 16-16 16h-53.333zM613.333 405.333c-8.837 0-16-7.163-16-16v-309.333c0-8.837 7.163-16 16-16h53.333c8.837 0 16 7.163 16 16v309.333c0 8.837-7.163 16-16 16h-53.333zM426.667 789.333c0 23.564 19.103 42.667 42.667 42.667h85.333c23.564 0 42.667-19.103 42.667-42.667s19.103-42.667 42.667-42.667h256c23.564 0 42.667-19.103 42.667-42.667v0c0-23.564-19.103-42.667-42.667-42.667h-768c-23.564 0-42.667 19.103-42.667 42.667s19.103 42.667 42.667 42.667h256c23.564 0 42.667 19.103 42.667 42.667z" />
<glyph unicode="thunder" glyph-name="thunder" d="M386.328-108.8c-7.631 0-15.261 1.222-22.892 4.887-20.348 9.773-31.794 31.764-26.707 53.754l68.675 305.419-165.328 56.197c-15.261 4.887-27.979 17.103-33.066 32.985s-1.272 31.764 10.174 43.98l354.818 406.818c15.261 17.103 39.424 21.99 59.772 13.438s33.066-30.542 29.25-52.532l-53.414-317.636 170.415-34.207c17.805-3.665 31.794-15.882 38.153-31.764 6.359-17.103 2.544-34.207-10.174-47.645l-381.525-416.591c-8.902-10.995-24.163-17.103-38.153-17.103z" />
<glyph unicode="strikethrough" glyph-name="strikethrough" d="M362.521 403.2h-157.721v-51.2h274.927c8.015-2.024 16.082-3.943 24.201-5.758 22.251-4.974 44.11-9.817 65.576-14.529s40.707-10.864 57.723-18.456c17.016-7.592 30.628-17.408 40.838-29.45s15.314-27.749 15.314-47.12c0-20.419-4.188-37.173-12.565-50.262s-19.372-23.429-32.984-31.021c-13.613-7.592-28.927-12.958-45.942-16.099s-33.9-4.712-50.654-4.712c-20.943 0-41.361 2.618-61.257 7.853s-37.304 13.351-52.225 24.346c-14.922 10.995-26.963 25-36.126 42.016s-13.743 37.304-13.743 60.864h-70.681c0-34.032 6.152-63.482 18.456-88.351s29.058-45.288 50.262-61.257c21.204-15.969 45.811-27.88 73.822-35.733s57.722-11.78 89.136-11.78c25.655 0 51.44 3.010 77.356 9.031s49.345 15.707 70.288 29.058c20.943 13.351 38.089 30.628 51.44 51.832s20.026 46.728 20.026 76.571c0 27.749-5.105 50.785-15.314 69.11-9.734 17.472-22.562 32.087-38.483 43.847h115.012v51.2h-250.857c-18.743 4.332-37.204 8.383-55.383 12.152-21.466 4.45-40.707 10.079-57.723 16.885s-30.628 15.576-40.838 26.309c-10.209 10.733-15.314 24.738-15.314 42.016 0 18.325 3.534 33.639 10.602 45.942s16.492 22.12 28.272 29.45c11.78 7.33 25.262 12.565 40.445 15.707s30.628 4.712 46.335 4.712c38.744 0 70.55-9.031 95.419-27.094s39.398-47.251 43.586-87.566h70.681c-1.047 30.89-6.937 57.461-17.67 79.712s-25.393 40.707-43.979 55.367c-18.586 14.66-40.183 25.393-64.791 32.199s-51.309 10.209-80.105 10.209c-25.655 0-50.654-3.272-75-9.817s-46.073-16.492-65.183-29.843c-19.11-13.351-34.424-30.366-45.942-51.047s-17.277-45.157-17.277-73.429c0-25.655 5.105-46.989 15.314-64.005 6.286-10.477 13.863-19.763 22.729-27.858z" />
<glyph unicode="state" glyph-name="state" d="M512-108.8c-254.493 0-460.8 206.307-460.8 460.8s206.307 460.8 460.8 460.8c254.493 0 460.8-206.307 460.8-460.8s-206.307-460.8-460.8-460.8zM512-6.4c197.939 0 358.4 160.461 358.4 358.4s-160.461 358.4-358.4 358.4c-197.939 0-358.4-160.461-358.4-358.4s160.461-358.4 358.4-358.4zM512 147.2c-113.108 0-204.8 91.692-204.8 204.8s91.692 204.8 204.8 204.8c113.108 0 204.8-91.692 204.8-204.8s-91.692-204.8-204.8-204.8zM512 249.6c56.554 0 102.4 45.846 102.4 102.4s-45.846 102.4-102.4 102.4c-56.554 0-102.4-45.846-102.4-102.4s45.846-102.4 102.4-102.4z" />
<glyph unicode="smiley" glyph-name="smiley" d="M515.2-9.6c197.939 0 358.4 160.461 358.4 358.4s-160.461 358.4-358.4 358.4c-197.939 0-358.4-160.461-358.4-358.4s160.461-358.4 358.4-358.4zM515.2-86.4c-240.354 0-435.2 194.846-435.2 435.2s194.846 435.2 435.2 435.2c240.354 0 435.2-194.846 435.2-435.2s-194.846-435.2-435.2-435.2zM284.8 254.126l48.038 17.874c28.070-68.012 103.131-104.611 180.583-104.611 77.524 0 156.136 36.699 184.134 104.597l48.044-17.86c-35.675-86.513-133.234-135.726-232.178-135.726-98.87 0-192.872 49.109-228.622 135.726zM336 374.4c-28.277 0-51.2 22.923-51.2 51.2s22.923 51.2 51.2 51.2c28.277 0 51.2-22.923 51.2-51.2s-22.923-51.2-51.2-51.2zM694.4 374.4c-28.277 0-51.2 22.923-51.2 51.2s22.923 51.2 51.2 51.2c28.277 0 51.2-22.923 51.2-51.2s-22.923-51.2-51.2-51.2z" />
<glyph unicode="slice" glyph-name="slice" d="M185.6 44.255h665.6c14.138 0 25.6-11.339 25.6-25.327s-11.462-25.327-25.6-25.327h-665.6c-14.138 0-25.6 11.339-25.6 25.327s11.462 25.327 25.6 25.327zM175.118 201.299l269.427 269.427c0 0 83.822 83.822 251.466 251.466 19.758 19.758 52.215 19.632 72.128-0.28s20.038-52.37 0.28-72.128l-208.45-208.45c-3.917-3.917-3.917-10.267 0-14.184l103.923-103.922c6.854-6.854 6.854-17.968 0-24.822-0.078-0.078-0.157-0.156-0.237-0.232-5.997-5.774-10.857-10.366-14.581-13.776-132.631-121.441-286.906-162.033-462.826-121.776v0.001c-12.38 2.833-20.119 15.165-17.286 27.545 0.965 4.215 3.098 8.073 6.156 11.131v0z" />
<glyph unicode="setting" glyph-name="setting" d="M469.54 96h-378.34c-22.091 0-40-17.909-40-40v-22.4c0-22.091 17.909-40 40-40h378.34c-5.66 16.014-8.74 33.247-8.74 51.2s3.080 35.186 8.74 51.2zM759.26 96h173.54c22.091 0 40-17.909 40-40v-22.4c0-22.091-17.909-40-40-40h-173.54c5.66 16.014 8.74 33.247 8.74 51.2s-3.080 35.186-8.74 51.2zM213.54 403.2h-122.34c-22.091 0-40-17.909-40-40v-22.4c0-22.091 17.909-40 40-40v0h122.34c-5.66 16.014-8.74 33.247-8.74 51.2s3.080 35.186 8.74 51.2zM503.26 403.2h429.54c22.091 0 40-17.909 40-40v-22.4c0-22.091-17.909-40-40-40h-429.54c5.66 16.014 8.74 33.247 8.74 51.2s-3.080 35.186-8.74 51.2zM520.74 710.4h-421.54c-26.51 0-48-21.49-48-48v0-6.4c0-26.51 21.49-48 48-48v0h421.54c-5.66 16.014-8.74 33.247-8.74 51.2s3.080 35.186 8.74 51.2zM810.46 710.4h114.34c26.51 0 48-21.49 48-48v-6.4c0-26.51-21.49-48-48-48h-114.34c5.66 16.014 8.74 33.247 8.74 51.2s-3.080 35.186-8.74 51.2zM665.6 556.8c-56.554 0-102.4 45.846-102.4 102.4s45.846 102.4 102.4 102.4c56.554 0 102.4-45.846 102.4-102.4s-45.846-102.4-102.4-102.4zM358.4 249.6c-56.554 0-102.4 45.846-102.4 102.4s45.846 102.4 102.4 102.4c56.554 0 102.4-45.846 102.4-102.4s-45.846-102.4-102.4-102.4zM614.4-57.6c-56.554 0-102.4 45.846-102.4 102.4s45.846 102.4 102.4 102.4c56.554 0 102.4-45.846 102.4-102.4s-45.846-102.4-102.4-102.4z" />
<glyph unicode="ruler" glyph-name="ruler" d="M73.143 726.857v-749.714c0-35.346 28.654-64 64-64h338.286v475.429h475.429v338.286c0 35.346-28.654 64-64 64h-749.714c-35.346 0-64-28.654-64-64zM877.714 571.429h-73.143l-0.465-73.143h-72.678v109.714h-73.143v-109.714h-73.143v73.143h-73.143v-73.143h-73.143v109.714h-73.143v-109.714h-109.714v-73.143h109.714v-73.143h-73.143v-73.143h73.143v-73.143h-109.714v-73.143h109.714v-73.143h-73.143v-73.143h-114.286c-17.673 0-32 14.327-32 32v668.571c0 17.673 14.327 32 32 32h667.429c17.673 0 32-14.327 32-32v-115.429z" />
<glyph unicode="right_double_bracket" glyph-name="right_double_bracket" d="M572.6 45.497l-0.002-0.003c17.79 0 33.756 8.027 44.718 20.755l232.218 239.845c12.322 11.319 20.092 27.813 20.092 46.185 0 15.467-5.514 29.598-14.609 40.438l-239.328 247.4c-10.887 11.673-26.163 18.948-43.094 18.948-33.049 0-59.84-27.674-59.84-61.807 0-19.78 9.007-37.376 23.004-48.69l189.917-196.153-191.134-197.414c-13.302-11.335-21.781-28.496-21.781-47.698 0-34.134 26.79-61.807 59.84-61.807zM214.2 45.497l-0.002-0.003c17.79 0 33.756 8.027 44.718 20.755l232.218 239.845c12.322 11.319 20.092 27.813 20.092 46.185 0 15.467-5.514 29.598-14.609 40.438l-239.328 247.4c-10.887 11.673-26.163 18.948-43.094 18.948-33.049 0-59.84-27.674-59.84-61.807 0-19.78 9.007-37.376 23.004-48.69l189.917-196.153-191.134-197.414c-13.302-11.335-21.781-28.496-21.781-47.698 0-34.134 26.79-61.807 59.84-61.807z" />
<glyph unicode="reply" glyph-name="reply" d="M19.969 433.291l409.414 297.364c9.589 6.296 21.941 7.087 32.303 2.069s17.119-15.062 17.672-26.268v-156.671c446.255 0 530.828-300.156 544.604-460.239 0.659-13.089-7.245-25.167-19.749-30.177s-26.909-1.872-35.993 7.84c-197.819 223.527-488.862 172.338-488.862 172.338v-156.671c-0.553-11.206-7.31-21.251-17.672-26.268s-22.714-4.226-32.303 2.069l-409.414 297.364c-12.569 9.109-19.969 23.422-19.969 38.625s7.4 29.516 19.969 38.625z" />
<glyph unicode="recycle" glyph-name="recycle" d="M153.6 524.8v0c0 17.673 14.327 32 32 32v0h652.8c17.673 0 32-14.327 32-32v0-531.2c0-56.554-45.846-102.4-102.4-102.4h-512c-56.554 0-102.4 45.846-102.4 102.4v531.2zM751.433 185.408l-37.143 63.299-23.259-51.492-56.173 3.983 37.143-63.299h-106.637l-44.544-46.585 44.544-46.514h106.849c38.553 0 69.705 16.571 85.564 45.376 15.647 28.662 13.18 63.725-6.343 95.232zM512.433 406.171c0.493 0.925 1.057 1.636 1.48 2.347 0.282-0.427 0.493-0.853 0.846-1.28l69.705-119.485 63.292-16.145 16.211 63.441-70.41 120.481c-19.594 31.792-48.702 50.070-79.714 50.070s-60.050-18.278-80.277-50.923l-44.121-75.034 54.763 1.067 24.598-48.648 43.628 74.109zM351.949 137.97c0.047 0.095 21.050 36.983 63.010 110.666l-16.352 60.881-63.715-14.438-62.516-109.741c-19.523-33.57-21.708-68.775-5.92-96.655s46.87-43.882 85.282-43.882h113.756l-32.844 46.585 32.914 46.585h-113.615zM409.6 787.2v9.6c0 8.837 7.163 16 16 16h172.8c8.837 0 16-7.163 16-16v-9.6c0-14.138 11.462-25.6 25.6-25.6h268.8c35.346 0 64-28.654 64-64v-25.6c0-35.346-28.654-64-64-64h-793.6c-35.346 0-64 28.654-64 64v25.6c0 35.346 28.654 64 64 64h268.8c14.138 0 25.6 11.462 25.6 25.6z" />
<glyph unicode="question_fc" glyph-name="question_fc" d="M512.021 864c-282.687 0-512.021-229.036-512.021-511.731 0-282.965 229.334-512.269 512.019-512.269 282.841 0 511.981 229.306 511.981 512.269 0.002 282.695-229.14 511.731-511.979 511.731zM548.508 67.378c-11.892-10.583-25.674-15.901-41.286-15.901-16.153 0-30.243 5.224-42.27 15.69-12.046 10.447-18.081 25.075-18.081 43.869 0 16.672 5.84 30.704 17.483 42.076s25.925 17.058 42.868 17.058c16.672 0 30.705-5.686 42.097-17.058 11.373-11.372 17.078-25.402 17.078-42.076-0.021-18.524-5.978-33.078-17.889-43.658zM696.79 434.975c-9.136-16.942-19.987-31.551-32.574-43.869-12.549-12.316-35.118-33.016-67.695-62.12-8.982-8.211-16.21-15.42-21.626-21.625-5.416-6.227-9.464-11.91-12.105-17.077-2.661-5.164-4.702-10.331-6.149-15.496-1.446-5.145-3.623-14.225-6.573-27.195-5.010-27.524-20.758-41.284-47.224-41.284-13.763 0-25.327 4.491-34.753 13.492-9.388 9.001-14.071 22.358-14.071 40.089 0 22.223 3.45 41.479 10.332 57.764 6.843 16.288 15.999 30.569 27.371 42.885 11.392 12.316 26.734 26.927 46.066 43.869 16.943 14.822 29.183 26 36.719 33.538 7.555 7.555 13.898 15.958 19.044 25.21 5.186 9.271 7.73 19.313 7.73 30.164 0 21.182-7.844 39.029-23.611 53.581-15.748 14.552-36.064 21.838-60.948 21.838-29.124 0-50.558-7.344-64.32-22.031s-25.384-36.312-34.926-64.896c-9.020-29.915-26.098-44.87-51.214-44.87-14.823 0-27.331 5.224-37.528 15.671-10.177 10.447-15.266 21.76-15.266 33.941 0 25.134 8.077 50.615 24.211 76.423 16.153 25.808 39.707 47.184 70.68 64.107 30.954 16.942 67.097 25.424 108.364 25.424 38.376 0 72.243-7.092 101.618-21.26 29.375-14.146 52.080-33.403 68.098-57.764 15.999-24.342 24.016-50.807 24.016-79.391 0.038-22.457-4.529-42.176-13.666-59.118z" />
<glyph unicode="question_c" glyph-name="question_c" d="M504.144 864c278.488 0 504.104-225.512 504.102-503.858 0-278.61-225.614-504.388-504.104-504.388-278.336 0-504.142 225.776-504.142 504.388 0 278.346 225.806 503.858 504.144 503.858zM504.141 800.985c-243.546 0-441.126-197.323-441.126-440.876 0-243.786 197.58-441.34 441.124-441.34 243.679 0 441.091 197.556 441.091 441.34 0.002 243.553-197.413 440.876-441.089 440.876zM540.069 79.634c-11.709-10.42-25.279-15.656-40.651-15.656-15.905 0-29.778 5.143-41.62 15.449-11.861 10.287-17.803 24.689-17.803 43.194 0 16.415 5.751 30.232 17.214 41.429s25.526 16.796 42.208 16.796c16.416 0 30.233-5.599 41.449-16.796 11.198-11.197 16.815-25.012 16.815-41.429-0.021-18.239-5.886-32.569-17.614-42.986zM686.070 441.576c-8.996-16.681-19.68-31.065-32.073-43.194-12.356-12.126-34.578-32.508-66.653-61.164-8.844-8.085-15.961-15.182-21.293-21.292-5.333-6.131-9.318-11.727-11.919-16.814-2.62-5.085-4.63-10.172-6.054-15.257-1.424-5.066-3.568-14.006-6.472-26.777-4.933-27.101-20.439-40.649-46.497-40.649-13.551 0-24.938 4.422-34.219 13.284-9.243 8.862-13.855 22.014-13.855 39.473 0 21.881 3.397 40.841 10.173 56.875 6.738 16.037 15.753 30.099 26.95 42.225 11.216 12.126 26.322 26.513 45.358 43.194 16.682 14.594 28.734 25.6 36.154 33.022 7.439 7.438 13.684 15.712 18.751 24.822 5.106 9.129 7.611 19.016 7.611 29.7 0 20.856-7.723 38.429-23.247 52.757-15.505 14.328-35.51 21.502-60.011 21.502-28.676 0-49.78-7.231-63.331-21.692s-24.994-35.753-34.389-63.898c-8.881-29.454-25.697-44.179-50.427-44.179-14.595 0-26.911 5.143-36.95 15.43-10.021 10.287-15.031 21.425-15.031 33.419 0 24.748 7.952 49.836 23.838 75.247 15.905 25.411 39.096 46.458 69.593 63.121 30.478 16.681 66.065 25.033 106.697 25.033 37.786 0 71.131-6.983 100.055-20.933 28.923-13.929 51.279-32.889 67.050-56.875 15.753-23.968 23.647-50.025 23.647-78.17 0.037-22.112-4.459-41.527-13.455-58.208z" />
<glyph unicode="preview" glyph-name="preview" d="M34.135 385.422c-0.759 81.918 198.332 318.578 477.864 318.578s477.812-239.852 477.864-318.578c0.052-78.726-191.391-318.578-477.864-318.578s-477.105 236.66-477.864 318.578zM501.886 189.546c107.522 0 194.686 84.6 194.686 188.96s-87.164 188.96-194.686 188.96c-107.522 0-194.686-84.6-194.686-188.96s87.164-188.96 194.686-188.96zM546.133 337.001c0-47.128-38.205-85.333-85.333-85.333s-85.333 38.205-85.333 85.333c0 47.128 38.205 85.333 85.333 85.333s85.333-38.205 85.333-85.333zM620.721 420.267c0-18.851-15.282-34.133-34.133-34.133s-34.133 15.282-34.133 34.133c0 18.851 15.282 34.133 34.133 34.133s34.133-15.282 34.133-34.133z" />
<glyph unicode="plus_fc" glyph-name="plus_fc" d="M455.111 408.889h-142.222c-15.709 0-28.444-12.735-28.444-28.444v-56.889c0-15.709 12.735-28.444 28.444-28.444h142.222v-142.222c0-15.709 12.735-28.444 28.444-28.444h56.889c15.709 0 28.444 12.735 28.444 28.444v142.222h142.222c15.709 0 28.444 12.735 28.444 28.444v56.889c0 15.709-12.735 28.444-28.444 28.444h-142.222v142.222c0 15.709-12.735 28.444-28.444 28.444h-56.889c-15.709 0-28.444-12.735-28.444-28.444v-142.222zM512-160c-282.77 0-512 229.23-512 512s229.23 512 512 512c282.77 0 512-229.23 512-512s-229.23-512-512-512z" />
<glyph unicode="plus_cb" glyph-name="plus_cb" d="M448 416h-160c-17.673 0-32-14.327-32-32v-64c0-17.673 14.327-32 32-32h160v-160c0-17.673 14.327-32 32-32h64c17.673 0 32 14.327 32 32v160h160c17.673 0 32 14.327 32 32v64c0 17.673-14.327 32-32 32h-160v160c0 17.673-14.327 32-32 32h-64c-17.673 0-32-14.327-32-32v0-160zM512-160c-282.77 0-512 229.23-512 512s229.23 512 512 512c282.77 0 512-229.23 512-512s-229.23-512-512-512zM512-32c212.077 0 384 171.923 384 384s-171.923 384-384 384c-212.077 0-384-171.923-384-384s171.923-384 384-384z" />
<glyph unicode="plus_c" glyph-name="plus_c" d="M448 416h-160c-17.673 0-32-14.327-32-32v-64c0-17.673 14.327-32 32-32h160v-160c0-17.673 14.327-32 32-32h64c17.673 0 32 14.327 32 32v160h160c17.673 0 32 14.327 32 32v64c0 17.673-14.327 32-32 32h-160v160c0 17.673-14.327 32-32 32h-64c-17.673 0-32-14.327-32-32v0-160zM512-160c-282.77 0-512 229.23-512 512s229.23 512 512 512c282.77 0 512-229.23 512-512s-229.23-512-512-512zM512-96c247.424 0 448 200.576 448 448s-200.576 448-448 448c-247.424 0-448-200.576-448-448s200.576-448 448-448z" />
<glyph unicode="plus" glyph-name="plus" d="M426.72 437.333h-305.831c-19.637 0-35.556-15.919-35.556-35.556v-99.556c0-19.637 15.919-35.556 35.556-35.556h305.831v-305.831c0-19.637 15.919-35.556 35.556-35.556h99.556c19.637 0 35.556 15.919 35.556 35.556v305.831h305.831c19.637 0 35.556 15.919 35.556 35.556v99.556c0 19.637-15.919 35.556-35.556 35.556h-305.831v305.831c0 19.637-15.919 35.556-35.556 35.556h-99.556c-19.637 0-35.556-15.919-35.556-35.556v-305.831z" />
<glyph unicode="play__circle" glyph-name="play__circle" d="M512-160c-282.77 0-512 229.23-512 512s229.23 512 512 512c282.77 0 512-229.23 512-512s-229.23-512-512-512zM512-57.6c226.216 0 409.6 183.384 409.6 409.6s-183.384 409.6-409.6 409.6c-226.216 0-409.6-183.384-409.6-409.6s183.384-409.6 409.6-409.6z" />
<glyph unicode="play__arrow" glyph-name="play__arrow" d="M435.2 147.2c-13.614 0-25.338 5.634-33.846 16.275s-13.236 25.874-13.236 42.775v291.498c0 16.901 4.727 32.134 13.236 42.775s20.232 16.275 33.846 16.275c10.211 0 20.799-3.339 31.199-9.807l221.282-146.166c18.53-11.685 29.119-29.421 29.119-48.826 0-19.614-10.589-37.142-29.686-49.244l-219.769-145.123c-11.345-7.094-21.745-10.433-32.145-10.433z" />
<glyph unicode="play" glyph-name="play" d="M512-160c-282.77 0-512 229.23-512 512s229.23 512 512 512c282.77 0 512-229.23 512-512s-229.23-512-512-512zM512-57.6c226.216 0 409.6 183.384 409.6 409.6s-183.384 409.6-409.6 409.6c-226.216 0-409.6-183.384-409.6-409.6s183.384-409.6 409.6-409.6zM435.2 147.2c-13.614 0-25.338 5.634-33.846 16.275s-13.236 25.874-13.236 42.775v291.498c0 16.901 4.727 32.134 13.236 42.775s20.232 16.275 33.846 16.275c10.211 0 20.799-3.339 31.199-9.807l221.282-146.166c18.53-11.685 29.119-29.421 29.119-48.826 0-19.614-10.589-37.142-29.686-49.244l-219.769-145.123c-11.345-7.094-21.745-10.433-32.145-10.433z" />
<glyph unicode="null" glyph-name="null" d="M768 710.4l-614.4-614.4v-102.4h102.4l614.4 614.4v102.4h-102.4z" />
<glyph unicode="move" glyph-name="move" d="M16.23 459.606l471.962 337.491c3.97 3.131 9.98 4.091 15.211 2.345 5.231-1.687 8.597-5.656 8.597-10.108v-213.333h426.667v-128h-918.714c-3.535 0-6.4 2.865-6.4 6.4 0 2.066 0.997 4.004 2.677 5.206zM1007.77 265.727l-471.962-337.491c-3.97-3.131-9.98-4.091-15.211-2.345-5.231 1.687-8.597 5.656-8.597 10.108v213.333h-426.667v128h918.714c3.535 0 6.4-2.865 6.4-6.4 0-2.066-0.997-4.004-2.677-5.206z" />
<glyph unicode="minus_fc" glyph-name="minus_fc" d="M512-160c-282.77 0-512 229.23-512 512s229.23 512 512 512c282.77 0 512-229.23 512-512s-229.23-512-512-512zM312.889 295.111h398.222c15.709 0 28.444 12.735 28.444 28.444v56.889c0 15.709-12.735 28.444-28.444 28.444h-398.222c-15.709 0-28.444-12.735-28.444-28.444v-56.889c0-15.709 12.735-28.444 28.444-28.444z" />
<glyph unicode="minus_cb" glyph-name="minus_cb" d="M288 416h448c17.673 0 32-14.327 32-32v-64c0-17.673-14.327-32-32-32h-448c-17.673 0-32 14.327-32 32v64c0 17.673 14.327 32 32 32zM512-160c-282.77 0-512 229.23-512 512s229.23 512 512 512c282.77 0 512-229.23 512-512s-229.23-512-512-512zM512-32c212.077 0 384 171.923 384 384s-171.923 384-384 384c-212.077 0-384-171.923-384-384s171.923-384 384-384z" />
<glyph unicode="minus_c" glyph-name="minus_c" d="M288 416h448c17.673 0 32-14.327 32-32v-64c0-17.673-14.327-32-32-32h-448c-17.673 0-32 14.327-32 32v64c0 17.673 14.327 32 32 32zM512-160c-282.77 0-512 229.23-512 512s229.23 512 512 512c282.77 0 512-229.23 512-512s-229.23-512-512-512zM512-96c247.424 0 448 200.576 448 448s-200.576 448-448 448c-247.424 0-448-200.576-448-448s200.576-448 448-448z" />
<glyph unicode="minus" glyph-name="minus" d="M170.667 266.667h682.667c47.128 0 85.333 38.205 85.333 85.333v0 0c0 47.128-38.205 85.333-85.333 85.333h-682.667c-47.128 0-85.333-38.205-85.333-85.333v0 0c0-47.128 38.205-85.333 85.333-85.333z" />
<glyph unicode="master" glyph-name="master" d="M236.8 44.8h550.4c17.673 0 32 14.327 32 32v550.4c0 17.673-14.327 32-32 32h-550.4c-17.673 0-32-14.327-32-32v-550.4c0-17.673 14.327-32 32-32zM192 736h640c35.346 0 64-28.654 64-64v-640c0-35.346-28.654-64-64-64h-640c-35.346 0-64 28.654-64 64v640c0 35.346 28.654 64 64 64zM471.040 458.24h348.16v72.96h-614.4v-72.96h204.8v-413.44h61.44z" />
<glyph unicode="magnet" glyph-name="magnet" d="M803.399 166.872l-153.913-153.913c-135.4-135.4-355.195-135.931-489.939-1.187-134.749 134.749-134.214 354.539 1.187 489.939l153.913 153.913 143.752-143.752-153.913-153.913c-55.752-55.752-55.97-146.253-0.487-201.736s145.984-55.265 201.731 0.492l153.916 153.911 143.754-143.754zM858.254 221.727l92.343 92.343c1.033 1.033 1.033 2.707 0 3.74l-140.012 140.012c-1.033 1.033-2.707 1.033-3.74 0v0l-92.345-92.342 143.753-143.753zM369.501 710.479l92.343 92.343c1.033 1.033 2.707 1.033 3.74 0v0l140.012-140.012c1.033-1.033 1.033-2.707 0-3.74l-92.343-92.343-143.752 143.752z" />
<glyph unicode="lock_s" glyph-name="lock_s" d="M417.564 448.705c0 24.895 14.791 99.562 88.747 99.562s88.747-74.667 88.747-99.562v-19.905h59.164v19.905c0 88.405-59.164 159.295-147.911 159.295s-147.911-70.89-147.911-159.295v-19.905h59.164v19.905zM307.2 379.2v-259.2c0-13.255 10.745-24 24-24h361.6c13.255 0 24 10.745 24 24v259.2c0 13.255-10.745 24-24 24h-361.6c-13.255 0-24-10.745-24-24z" />
<glyph unicode="list" glyph-name="list" d="M76.8 582.4h17.067c42.415 0 76.8 34.385 76.8 76.8v0 0c0 42.415-34.385 76.8-76.8 76.8h-17.067c-42.415 0-76.8-34.385-76.8-76.8v0 0c0-42.415 34.385-76.8 76.8-76.8zM343.194 582.4c-42.357 0-76.694 34.385-76.694 76.8s34.337 76.8 76.694 76.8h604.113c42.357 0 76.694-34.385 76.694-76.8s-34.337-76.8-76.694-76.8h-604.113zM76.8 275.2c-42.415 0-76.8 34.385-76.8 76.8v0 0c0 42.415 34.385 76.8 76.8 76.8v0h17.067c42.415 0 76.8-34.385 76.8-76.8s-34.385-76.8-76.8-76.8v0h-17.067zM333.757 275.2c-42.944 0-77.757 34.385-77.757 76.8s34.813 76.8 77.757 76.8h612.486c42.944 0 77.757-34.385 77.757-76.8s-34.813-76.8-77.757-76.8h-612.486zM76.8-32c-42.415 0-76.8 34.385-76.8 76.8v0 0c0 42.415 34.385 76.8 76.8 76.8v0h17.067c42.415 0 76.8-34.385 76.8-76.8s-34.385-76.8-76.8-76.8v0h-17.067zM343.194-32c-42.357 0-76.694 34.385-76.694 76.8s34.337 76.8 76.694 76.8h604.113c42.357 0 76.694-34.385 76.694-76.8s-34.337-76.8-76.694-76.8h-604.113z" />
<glyph unicode="left_double_bracket" glyph-name="left_double_bracket" d="M451.4 45.497l0.002-0.003c-17.79 0-33.756 8.027-44.718 20.755l-232.218 239.845c-12.322 11.319-20.092 27.813-20.092 46.185 0 15.467 5.514 29.598 14.609 40.438l239.328 247.4c10.887 11.673 26.163 18.948 43.094 18.948 33.049 0 59.84-27.674 59.84-61.807 0-19.78-9.007-37.376-23.004-48.69l-189.917-196.153 191.134-197.414c13.302-11.335 21.781-28.496 21.781-47.698 0-34.134-26.79-61.807-59.84-61.807zM809.8 45.497l0.002-0.003c-17.79 0-33.756 8.027-44.718 20.755l-232.218 239.845c-12.322 11.319-20.092 27.813-20.092 46.185 0 15.467 5.514 29.598 14.609 40.438l239.328 247.4c10.887 11.673 26.163 18.948 43.094 18.948 33.049 0 59.84-27.674 59.84-61.807 0-19.78-9.007-37.376-23.004-48.69l-189.917-196.153 191.134-197.414c13.302-11.335 21.781-28.496 21.781-47.698 0-34.134-26.79-61.807-59.84-61.807z" />
<glyph unicode="keyboard" glyph-name="keyboard" d="M384.511 496c7.199 155.976 89.118 154.393 161.008 164.401 72.418 10.085 92.592 16.764 92.592 138.434 0.776 19.121 16.682 33.921 35.563 33.135 17.717-0.786 31.942-15.192 32.718-33.135 0-181.392-75.781-195.929-151.432-206.407-69.205-9.629-98.532-1.335-102.265-96.428h443.306c35.346 0 64-28.654 64-64v-448c0-35.346-28.654-64-64-64h-736c-35.346 0-64 28.654-64 64v448c0 35.346 28.654 64 64 64v0h224.511zM384 160h96v96h-96v-96zM528 160h96v96h-96v-96zM672 160h96v96h-96v-96zM768 16h96v96h-96v-96zM240 160h96v96h-96v-96zM192 16h96v96h-96v-96zM576 400h-96v-96h96v96zM432 400h-96v-96h95.854l0.146 96zM720 400h-96v-96h96v96zM288 400h-96v-96h96v96zM768 304h96v96h-96v-96zM336 16h384v96h-384v-96z" />
<glyph unicode="italic" glyph-name="italic" d="M460.8 659.2h204.8v-51.2h-204.8v51.2zM512 608h76.8l-102.4-460.8h-76.8l102.4 460.8zM358.4 147.2h204.8v-51.2h-204.8v51.2z" />
<glyph unicode="inspect__slash" glyph-name="inspect__slash" d="M625.816 791.755v0c24.448-7.944 37.828-34.203 29.884-58.651l-244.517-752.545c-7.944-24.448-34.203-37.828-58.651-29.884v0c-24.448 7.944-37.828 34.203-29.884 58.651l244.517 752.545c7.944 24.448 34.203 37.828 58.651 29.884z" />
<glyph unicode="inspect__bracket" glyph-name="inspect__bracket" d="M292.253 603.784c-23.961 24.603-62.825 24.603-86.777 0l-187.484-192.194c-23.989-24.554-23.989-64.396 0-88.951l187.484-192.237c11.976-12.258 27.701-18.416 43.389-18.416s31.404 6.159 43.389 18.416c23.951 24.573 23.951 64.406 0 88.975l-144.115 147.732 144.115 147.732c23.951 24.564 23.951 64.397 0 88.942zM998.834 411.144l-187.492 192.194c-23.961 24.603-62.816 24.603-86.767 0-23.961-24.545-23.961-64.378 0-88.941l144.105-147.732-144.105-147.733c-23.961-24.569-23.961-64.402 0-88.975 11.975-12.258 27.682-18.416 43.379-18.416 15.688 0 31.412 6.159 43.389 18.416l187.494 192.237c23.979 24.554 23.979 64.397-0.001 88.951z" />
<glyph unicode="inspect" glyph-name="inspect" d="M307.922 611.388c22.613-23.481 22.613-61.588 0-85.088l-136.062-141.329 136.062-141.329c22.613-23.504 22.613-61.611 0-85.119-11.315-11.726-26.153-17.618-40.964-17.618s-29.657 5.891-40.964 17.618l-177.007 183.905c-22.648 23.491-22.648 61.606 0 85.096l177.007 183.864c22.614 23.537 59.306 23.537 81.928 0zM975.020 427.098c22.64-23.49 22.64-61.606 0.001-85.096l-177.017-183.905c-11.307-11.726-26.153-17.618-40.964-17.618-14.82 0-29.649 5.891-40.955 17.618-22.622 23.508-22.622 61.615 0 85.119l136.052 141.33-136.052 141.329c-22.622 23.499-22.622 61.605 0 85.086 22.613 23.537 59.297 23.537 81.919 0l177.016-183.864zM607.055 701.76c23.913-7.77 36.999-33.453 29.229-57.366l-178.198-548.436c-7.77-23.913-33.453-36.999-57.366-29.229s-36.999 33.453-29.229 57.366l178.198 548.436c7.77 23.913 33.453 36.999 57.366 29.229z" />
<glyph unicode="img" glyph-name="img" d="M52.111 659.17l-0.964-646.448c-0.050-33.486 27.055-60.672 60.541-60.722 0.030 0 0.060 0 0.090 0h800.358c33.486 0 60.632 27.146 60.632 60.632v646.737h0.020c0 33.486-27.146 60.632-60.632 60.632-0.007 0-0.014 0-0.020 0l-799.415-0.289c-33.443-0.011-60.561-27.099-60.611-60.541zM656.807 359.299l-241.818-239.299-99.949 98.908c-11.809 11.686-30.824 11.69-42.638 0.010l-124.324-122.917v491.621c0 20.092 16.287 36.379 36.379 36.379h654.911c20.092 0 36.379-16.287 36.379-36.379v-467.621l-173.185 235.701c-9.914 13.492-28.888 16.393-42.381 6.48-1.193-0.877-2.321-1.84-3.374-2.882zM390.677 326.4c-48.182 0-87.364 38.681-87.364 86.444 0 47.675 39.093 86.356 87.364 86.356 48.182 0 87.275-38.681 87.275-86.356 0-47.762-39.093-86.444-87.275-86.444z" />
<glyph unicode="grid" glyph-name="grid" d="M137.143-86.857h749.714c35.346 0 64 28.654 64 64v749.714c0 35.346-28.654 64-64 64h-749.714c-35.346 0-64-28.654-64-64v-749.714c0-35.346 28.654-64 64-64zM809.143 22.857h-594.286c-17.673 0-32 14.327-32 32v594.286c0 17.673 14.327 32 32 32h594.286c17.673 0 32-14.327 32-32v-594.286c0-17.673-14.327-32-32-32zM219.429 498.286h585.143v-73.143h-585.143v73.143zM219.429 278.857h585.143v-73.143h-585.143v73.143zM365.714 644.571h73.143v-585.143h-73.143v585.143zM585.143 644.571h73.143v-585.143h-73.143v585.143z" />
<glyph unicode="forward_fc" glyph-name="forward_fc" d="M512 864c282.77 0 512-229.23 512-512s-229.23-512-512-512c-282.77 0-512 229.23-512 512s229.23 512 512 512zM399.469 593c-20.625-19.875-20.625-52.188 0-72.125l176.778-168.875-176.778-168.875c-20.625-19.875-20.625-52.187 0-72.125 20.757-20 54.297-20 75.054 0l214.009 204.875c20.625 20 20.625 52.188 0 72.25l-214.009 204.875c-20.757 20-54.297 20-75.054 0z" />
<glyph unicode="file_text" glyph-name="file_text" d="M499.2 768v-243.2c0-35.346 28.654-64 64-64h243.2v-448c0-35.346-28.654-64-64-64h-486.4c-35.346 0-64 28.654-64 64v691.2c0 35.346 28.654 64 64 64v0h243.2zM499.2 768h51.2zM806.4 512h-224c-17.673 0-32 14.327-32 32v224l256-256zM320 358.4v0c-14.138 0-25.6-11.462-25.6-25.6s11.462-25.6 25.6-25.6h358.4c14.138 0 25.6 11.462 25.6 25.6s-11.462 25.6-25.6 25.6h-358.4zM320 204.8c-14.138 0-25.6-11.462-25.6-25.6s11.462-25.6 25.6-25.6h358.4c14.138 0 25.6 11.462 25.6 25.6s-11.462 25.6-25.6 25.6h-358.4z" />
<glyph unicode="file_f" glyph-name="file_f" d="M499.2 768v-243.2c0-35.346 28.654-64 64-64h243.2v-448c0-35.346-28.654-64-64-64h-486.4c-35.346 0-64 28.654-64 64v691.2c0 35.346 28.654 64 64 64v0h243.2zM499.2 768h51.2zM806.4 512h-224c-17.673 0-32 14.327-32 32v0 224l256-256z" />
<glyph unicode="file" glyph-name="file" d="M518.4 693.527h-249.6v-670.255h460.8v461.731l-153.6 166.819v-107.241c0-41.13 34.385-74.473 76.8-74.473h76.8v-74.473h-76.8c-84.831 0-153.6 66.685-153.6 148.945v148.945h19.2zM268.8 768h273.226c21.638 0 42.272-8.851 56.827-24.377l187.574-200.079c12.852-13.708 19.973-31.569 19.973-50.096v-470.176c0-41.13-34.385-74.473-76.8-74.473h-460.8c-42.415 0-76.8 33.343-76.8 74.473v670.255c0 19.347 7.608 36.971 20.081 50.212 14.044 14.908 34.255 24.261 56.719 24.261z" />
<glyph unicode="evenly_distribute_v__object" glyph-name="evenly_distribute_v__object" d="M288 454.4h448c17.673 0 32-14.327 32-32v-140.8c0-17.673-14.327-32-32-32h-448c-17.673 0-32 14.327-32 32v140.8c0 17.673 14.327 32 32 32z" />
<glyph unicode="evenly_distribute_v__indicator" glyph-name="evenly_distribute_v__indicator" d="M204.8 659.2h614.4v-51.2h-614.4v51.2zM204.8 96h614.4v-51.2h-614.4v51.2z" />
<glyph unicode="evenly_distribute_v" glyph-name="evenly_distribute_v" d="M288 454.4h448c17.673 0 32-14.327 32-32v-140.8c0-17.673-14.327-32-32-32h-448c-17.673 0-32 14.327-32 32v140.8c0 17.673 14.327 32 32 32zM204.8 659.2h614.4v-51.2h-614.4v51.2zM204.8 96h614.4v-51.2h-614.4v51.2z" />
<glyph unicode="evenly_distribute_h__object" glyph-name="evenly_distribute_h__object" d="M441.6 608h140.8c17.673 0 32-14.327 32-32v-448c0-17.673-14.327-32-32-32h-140.8c-17.673 0-32 14.327-32 32v448c0 17.673 14.327 32 32 32z" />
<glyph unicode="evenly_distribute_h__indicator" glyph-name="evenly_distribute_h__indicator" d="M204.8 659.2h51.2v-614.4h-51.2v614.4zM768 659.2h51.2v-614.4h-51.2v614.4z" />
<glyph unicode="evenly_distribute_h" glyph-name="evenly_distribute_h" d="M441.6 608h140.8c17.673 0 32-14.327 32-32v-448c0-17.673-14.327-32-32-32h-140.8c-17.673 0-32 14.327-32 32v448c0 17.673 14.327 32 32 32zM204.8 659.2h51.2v-614.4h-51.2v614.4zM768 659.2h51.2v-614.4h-51.2v614.4z" />
<glyph unicode="element" glyph-name="element" d="M137.063 285.583l368.537-246.883 368.537 246.883 24.679-16.494c8.192-8.213 16.384-20.531 16.384-32.85s-4.096-24.638-16.384-32.85l-368.64-246.376c-8.192-4.106-16.384-8.213-24.576-8.213s-16.384 4.106-24.576 8.213l-368.64 246.376c-8.192 8.213-16.384 20.531-16.384 32.85s8.192 24.638 16.384 32.85l24.679 16.494zM247.535 359.415l0.017 0.011-135.168 90.338c-8.192 8.213-16.384 20.531-16.384 32.85s8.192 24.638 20.48 32.85l368.64 246.376c12.288 8.213 32.768 8.213 45.056 0l368.64-246.376c8.192-8.213 16.384-20.531 16.384-32.85s-8.192-24.638-16.384-32.85l-393.216-262.803-258.065 172.454z" />
<glyph unicode="duplicate" glyph-name="duplicate" d="M234.667 661.333h704c17.673 0 32-14.327 32-32v-704c0-17.673-14.327-32-32-32h-704c-17.673 0-32 14.327-32 32v704c0 17.673 14.327 32 32 32v0zM373.333 490.667v-426.667h426.667v426.667h-426.667zM800 746.667c0 47.128-38.205 85.333-85.333 85.333h-597.333c-47.128 0-85.333-38.205-85.333-85.333v-597.333c0-47.128 38.205-85.333 85.333-85.333v597.333c0 47.128 38.205 85.333 85.333 85.333h597.333z" />
<glyph unicode="download" glyph-name="download" d="M585.143 329.322l127.2 112.825c32.498 27.899 85.168 27.899 117.564 0 32.6-28.077 32.6-73.446 0-101.524l-245.809-216.342c-32.702-27.899-85.168-27.899-117.768 0l-245.809 216.342c-32.6 28.077-32.6 73.446 0 101.524 32.498 27.899 85.168 27.899 117.564 0l100.771-89.383v374.093c0 40.396 32.747 73.143 73.143 73.143s73.143-32.747 73.143-73.143v-397.535zM146.286 507.429v-480c0-17.673 14.327-32 32-32h667.429c17.673 0 32 14.327 32 32v480c0 40.396 32.747 73.143 73.143 73.143s73.143-32.747 73.143-73.143v-512c0-40.396-16.374-76.967-42.846-103.44s-63.044-42.846-103.44-42.846h-731.429c-40.396 0-76.967 16.374-103.44 42.846s-42.846 63.044-42.846 103.44v512c0 40.396 32.747 73.143 73.143 73.143s73.143-32.747 73.143-73.143z" />
<glyph unicode="degree" glyph-name="degree" d="M488.929 378.707c45.91-46.27 74.271-109.976 74.271-180.307 0-10.837-0.673-21.517-1.981-32h265.805c19.44 0 35.2-15.76 35.2-35.2s-15.76-35.2-35.2-35.2h-642.808c-8.271 0-16.222 3.203-22.183 8.937-12.737 12.251-13.131 32.509-0.88 45.246v0l462.566 480.918c14.945 15.538 39.638 16.070 55.239 1.191v0 0c0.044-0.042 0.088-0.084 0.132-0.127 15.438-14.863 15.904-39.428 1.040-54.865l-191.203-198.593zM509.515 166.4c1.636 10.427 2.485 21.114 2.485 32 0 55.843-22.35 106.466-58.594 143.412l-158.448-164.573c-1.148-1.193-1.79-2.784-1.79-4.439 0-3.535 2.865-6.4 6.4-6.4h209.946z" />
<glyph unicode="day_night" glyph-name="day_night" d="M821.867 688h-645.867v-645.867l645.867 645.867zM120 800h784c30.928 0 56-25.072 56-56v-784c0-30.928-25.072-56-56-56h-784c-30.928 0-56 25.072-56 56v784c0 30.928 25.072 56 56 56z" />
<glyph unicode="cursor" glyph-name="cursor" d="M103.969 863.089l884.666-527.396c7.59-4.525 10.075-14.346 5.55-21.936-2.535-4.252-6.895-7.091-11.808-7.69l-434.244-52.898c-10.975-1.337-20.482-8.244-25.145-18.269l-184.498-396.644c-3.727-8.012-13.243-11.486-21.255-7.759-4.488 2.088-7.757 6.135-8.854 10.962l-228.207 1004.342c-1.958 8.617 3.44 17.19 12.057 19.147 4.006 0.91 8.209 0.245 11.738-1.859z" />
<glyph unicode="cube" glyph-name="cube" d="M905.713 593.69l-378.228 214.79c-4.453 2.58-9.805 4.103-15.515 4.103s-11.062-1.523-15.663-4.183l-378.022-214.77c-9.322-5.353-15.498-15.19-15.515-26.458v-429.676c0-10.945 5.928-20.966 15.515-26.496l378.17-214.847c4.47-2.512 9.818-3.992 15.515-3.992s11.045 1.481 15.673 4.073l378.069 214.767c9.334 5.361 15.513 15.214 15.515 26.499v429.693c-0.003 11.283-6.183 21.137-15.37 26.418l-0.145 0.078zM839.369 166.314l-327.398-185.975-327.343 185.975v372.004l327.343 185.975 327.398-185.975v-372.004zM253.271 488.339c-2.619-4.386-4.165-9.663-4.165-15.301 0-11.282 6.199-21.132 15.407-26.381l216.080-122.766v-242.611c0-16.935 13.829-30.529 31.029-30.529 0.069-0.001 0.151-0.001 0.232-0.001 17.008 0 30.798 13.668 30.798 30.529 0 0 0 0.001 0 0.001v242.266l216.686 123.148c9.345 5.345 15.534 15.197 15.534 26.481 0 5.627-1.539 10.898-4.222 15.421-5.443 9.056-15.421 15.124-26.829 15.124-5.709 0-11.058-1.519-15.661-4.172l-216.188-122.781-216.28 122.861c-4.438 2.542-9.762 4.043-15.44 4.043-11.443 0-21.452-6.096-26.899-15.19l-0.082-0.142z" />
</font>
</defs>
</svg>
